<?xml version="1.0" encoding="utf-8"?>
<!-- Generator: Adobe Illustrator 18.0.0, SVG Export Plug-In . SVG Version: 6.00 Build 0)  -->
<!DOCTYPE svg PUBLIC "-//W3C//DTD SVG 1.1//EN" "http://www.w3.org/Graphics/SVG/1.1/DTD/svg11.dtd">
<svg version="1.1" id="Layer_1" xmlns="http://www.w3.org/2000/svg" xmlns:xlink="http://www.w3.org/1999/xlink" x="0px" y="0px"
	 viewBox="0 0 160 160" enable-background="new 0 0 160 160" xml:space="preserve">
<g opacity="0.66">
	<g>
		<path fill="#F7931E" d="M65.4,69.2c0,0,19.5-2.8,21.8-20.5c0,0-0.8-17.7-17.5-20.2H33.4c0,0-10.5-1.5-10.5-10.5c0,0,1-9.8,8.5-11
			h42.7c0,0,35,1.8,35,41.8c0,36.5-35,41.7-35,41.7l-42,0.3c0,0-9.2-1.8-9.2-11c0,0-1.5-6.5,8.2-10.5h34.3V69.2z"/>
	</g>
</g>
<g opacity="0.66">
	<g>
		<path fill="#F7931E" d="M65.1,131.5c0,0,19.5-2.6,21.9-20.4c0,0-0.6-17.7-17.4-20.4l-36.2-0.2c0,0-10.5-1.6-10.4-10.6
			c0,0,1.1-9.7,8.6-10.9l42.7,0.3c0,0,35,2,34.7,42c-0.2,36.5-35.3,41.5-35.3,41.5h-42c0,0-9.2-1.8-9.2-11.1c0,0-1.5-6.5,8.3-10.4
			L65.1,131.5z"/>
	</g>
</g>
<g>
	<path fill="#F7931E" d="M116.4,18.4c0.7,0.5,1.6,1,2.7,1c1.5,0,2.4-1,2.4-2.5c0-1.4-0.6-2.2-2.2-2.9c-1.9-0.9-3-2.1-3-4.2
		c0-2.3,1.5-4,3.7-4c1.2,0,2,0.4,2.5,0.7L122.1,8c-0.4-0.3-1.1-0.7-2.2-0.7c-1.6,0-2.2,1.2-2.2,2.2c0,1.4,0.7,2.1,2.3,2.9
		c1.9,1,2.9,2.2,2.9,4.3c0,2.3-1.3,4.3-4,4.3c-1.1,0-2.3-0.4-2.9-0.9L116.4,18.4z"/>
	<path fill="#F7931E" d="M118.7,29.5h-3.5v-1.6h8.5v1.6h-3.5v13.2h-1.5V29.5z"/>
	<path fill="#F7931E" d="M116.8,49.8v8.8c0,3.3,1.1,4.7,2.7,4.7c1.7,0,2.8-1.4,2.8-4.7v-8.8h1.5v8.6c0,4.5-1.9,6.4-4.3,6.4
		c-2.3,0-4.1-1.7-4.1-6.3v-8.7H116.8z"/>
	<path fill="#F7931E" d="M115.1,72c0.9-0.2,2-0.3,3.1-0.3c2.1,0,3.6,0.6,4.6,1.8c1,1.2,1.6,2.9,1.6,5.3c0,2.4-0.6,4.4-1.6,5.8
		c-1.1,1.4-2.8,2.1-5.1,2.1c-1.1,0-1.9-0.1-2.7-0.2V72z M116.6,85.1c0.4,0.1,0.9,0.1,1.5,0.1c3.2,0,4.9-2.3,4.9-6.3
		c0-3.5-1.5-5.7-4.6-5.7c-0.8,0-1.3,0.1-1.7,0.2V85.1z"/>
	<path fill="#F7931E" d="M122.5,101.6h-4.5v5.3h5v1.6h-6.4V93.7h6.2v1.6h-4.7v4.7h4.5V101.6z"/>
	<path fill="#F7931E" d="M115.2,130.5v-14.8h1.6l3.7,7.5c0.9,1.7,1.5,3.3,2.1,4.8l0,0c-0.1-2-0.2-3.8-0.2-6.1v-6.2h1.4v14.8h-1.5
		l-3.6-7.5c-0.8-1.6-1.6-3.3-2.1-4.9l-0.1,0c0.1,1.9,0.1,3.6,0.1,6.1v6.3H115.2z"/>
	<path fill="#F7931E" d="M118.7,139.3h-3.5v-1.6h8.5v1.6h-3.5v13.2h-1.5V139.3z"/>
</g>
<g>
	<path fill="#F7931E" d="M138.6,47.7V60H137V47.7H138.6z"/>
	<path fill="#F7931E" d="M133.2,78.3V66h1.7l4,6.2c0.9,1.4,1.6,2.7,2.2,4l0,0c-0.1-1.6-0.2-3.2-0.2-5.1V66h1.5v12.4h-1.6l-3.9-6.3
		c-0.9-1.4-1.7-2.8-2.3-4.1l-0.1,0c0.1,1.6,0.1,3,0.1,5.1v5.3H133.2z"/>
	<path fill="#F7931E" d="M134.8,84.3h6.7v1.3h-5.1v4.1h4.7v1.3h-4.7v5.6h-1.6V84.3z"/>
	<path fill="#F7931E" d="M143.5,108.7c0,4.3-2.6,6.5-5.7,6.5c-3.3,0-5.6-2.5-5.6-6.3c0-3.9,2.4-6.5,5.7-6.5
		C141.3,102.5,143.5,105,143.5,108.7z M133.9,108.9c0,2.6,1.4,5,3.9,5c2.5,0,4-2.3,4-5.1c0-2.5-1.3-5-3.9-5
		C135.2,103.8,133.9,106.2,133.9,108.9z"/>
</g>
</svg>
