<?xml version="1.0" encoding="utf-8"?>
<!-- Generator: Adobe Illustrator 17.1.0, SVG Export Plug-In . SVG Version: 6.00 Build 0)  -->
<!DOCTYPE svg PUBLIC "-//W3C//DTD SVG 1.1//EN" "http://www.w3.org/Graphics/SVG/1.1/DTD/svg11.dtd">
<svg version="1.1" id="Layer_1" xmlns="http://www.w3.org/2000/svg" xmlns:xlink="http://www.w3.org/1999/xlink" x="0px" y="0px"
	 viewBox="0 0 160 160" enable-background="new 0 0 160 160" xml:space="preserve">
<g opacity="0.66">
	<g>
		<path fill="#F7931E" d="M74.6,69.7c0,0,19.9-2.9,22.3-21c0,0-0.8-18.1-17.9-20.6H41.9c0,0-10.7-1.5-10.7-10.7c0,0,1-10,8.7-11.2
			h43.6c0,0,35.8,1.8,35.8,42.7c0,37.3-35.8,42.6-35.8,42.6l-42.9,0.3c0,0-9.4-1.8-9.4-11.2c0,0-1.5-6.6,8.4-10.7h35.1
			C74.6,69.8,74.6,69.7,74.6,69.7z"/>
	</g>
</g>
<g opacity="0.66">
	<g>
		<path fill="#F7931E" d="M74.3,133.4c0,0,19.9-2.7,22.4-20.9c0,0-0.6-18.1-17.8-20.9l-37-0.2c0,0-10.7-1.6-10.6-10.8
			c0,0,1.1-9.9,8.8-11.1l43.6,0.3c0,0,35.8,2,35.5,42.9c-0.2,37.3-36.1,42.4-36.1,42.4H40.1c0,0-9.4-1.8-9.4-11.3
			c0,0-1.5-6.6,8.5-10.6L74.3,133.4z"/>
	</g>
</g>
<g>
	<path fill="#F7931E" d="M126.7,17.7c0.7,0.5,1.6,1,2.8,1c1.5,0,2.5-1,2.5-2.6c0-1.4-0.6-2.2-2.2-3c-1.9-0.9-3.1-2.1-3.1-4.3
		c0-2.4,1.5-4.1,3.8-4.1c1.2,0,2,0.4,2.6,0.7l-0.4,1.5c-0.4-0.3-1.1-0.7-2.2-0.7c-1.6,0-2.2,1.2-2.2,2.2c0,1.4,0.7,2.1,2.4,3
		c1.9,1,3,2.2,3,4.4c0,2.4-1.3,4.4-4.1,4.4c-1.1,0-2.4-0.4-3-0.9L126.7,17.7z"/>
	<path fill="#F7931E" d="M129.1,29.1h-3.6v-1.6h8.7v1.6h-3.6v13.5h-1.5V29.1z"/>
	<path fill="#F7931E" d="M127.1,49.8v9c0,3.4,1.1,4.8,2.8,4.8c1.7,0,2.9-1.4,2.9-4.8v-9h1.5v8.8c0,4.6-1.9,6.5-4.4,6.5
		c-2.4,0-4.2-1.7-4.2-6.4v-8.9C125.7,49.8,127.1,49.8,127.1,49.8z"/>
	<path fill="#F7931E" d="M125.4,72.5c0.9-0.2,2-0.3,3.2-0.3c2.1,0,3.7,0.6,4.7,1.8c1,1.2,1.6,3,1.6,5.4s-0.6,4.5-1.6,5.9
		c-1.1,1.4-2.9,2.1-5.2,2.1c-1.1,0-1.9-0.1-2.8-0.2V72.5H125.4z M126.9,85.9c0.4,0.1,0.9,0.1,1.5,0.1c3.3,0,5-2.4,5-6.4
		c0-3.6-1.5-5.8-4.7-5.8c-0.8,0-1.3,0.1-1.7,0.2v12H126.9z"/>
	<path fill="#F7931E" d="M132.9,102.8h-4.6v5.4h5.1v1.6h-6.5V94.7h6.3v1.6h-4.8v4.8h4.6v1.6H132.9z"/>
	<path fill="#F7931E" d="M125.5,132.3v-15.1h1.6l3.8,7.7c0.9,1.7,1.5,3.4,2.1,4.9l0,0c-0.1-2-0.2-3.9-0.2-6.2v-6.3h1.4v15.1h-1.5
		l-3.7-7.7c-0.8-1.6-1.6-3.4-2.1-5h-0.1c0.1,1.9,0.1,3.7,0.1,6.2v6.4H125.5z"/>
	<path fill="#F7931E" d="M129.1,141.3h-3.6v-1.6h8.7v1.6h-3.6v13.5h-1.5V141.3z"/>
</g>
<g>
	<path fill="#F7931E" d="M141.5,42.6l1.4,5.3c0.3,1.2,0.6,2.2,0.8,3.3h0.1c0.2-1.1,0.6-2.2,0.9-3.3l1.7-5.3h1.6l1.6,5.2
		c0.4,1.3,0.7,2.3,0.9,3.4h0.1c0.2-1.1,0.5-2.2,0.8-3.4l1.5-5.2h1.9l-3.4,10.4h-1.7l-1.6-5c-0.4-1.2-0.7-2.2-0.9-3.4h0
		c-0.3,1.3-0.6,2.3-0.9,3.4l-1.7,5h-1.7l-3.1-10.4H141.5z"/>
	<path fill="#F7931E" d="M152.2,69.3c0,3.9-2.7,5.5-5.2,5.5c-2.8,0-5-2.1-5-5.4c0-3.5,2.3-5.5,5.2-5.5
		C150.2,64,152.2,66.1,152.2,69.3z M143.9,69.4c0,2.3,1.3,4,3.2,4c1.8,0,3.2-1.7,3.2-4.1c0-1.8-0.9-4-3.1-4
		C144.9,65.4,143.9,67.4,143.9,69.4z"/>
	<path fill="#F7931E" d="M145.2,89c0-1.2,0-2.3-0.1-3.3h1.7l0.1,2h0.1c0.5-1.4,1.6-2.3,2.9-2.3c0.2,0,0.4,0,0.5,0.1v1.8
		c-0.2,0-0.4-0.1-0.6-0.1c-1.3,0-2.3,1-2.5,2.4c0,0.3-0.1,0.6-0.1,0.9v5.6h-1.9V89z"/>
	<path fill="#F7931E" d="M145.5,112.1L145.5,112.1c0.3-0.4,0.7-0.8,1-1.2l3.1-3.6h2.3l-4,4.3l4.6,6.1h-2.3l-3.6-5l-1,1.1v3.9h-1.9
		v-15.3h1.9V112.1z"/>
</g>
</svg>
