<?xml version="1.0" encoding="utf-8"?>
<!-- Generator: Adobe Illustrator 18.0.0, SVG Export Plug-In . SVG Version: 6.00 Build 0)  -->
<!DOCTYPE svg PUBLIC "-//W3C//DTD SVG 1.1//EN" "http://www.w3.org/Graphics/SVG/1.1/DTD/svg11.dtd">
<svg version="1.1" id="Layer_1" xmlns="http://www.w3.org/2000/svg" xmlns:xlink="http://www.w3.org/1999/xlink" x="0px" y="0px"
	 viewBox="0 0 160 160" enable-background="new 0 0 160 160" xml:space="preserve">
<rect opacity="0.4" fill="#F7931E" width="160" height="160"/>
<g opacity="0.66">
	<g>
		<path fill="#F7931E" d="M69,68.9c0,0,19.9-2.9,22.3-21c0,0-0.8-18.1-17.9-20.6H36.3c0,0-10.7-1.5-10.7-10.7c0,0,1-10,8.7-11.2
			h43.6c0,0,35.8,1.8,35.8,42.7c0,37.3-35.8,42.6-35.8,42.6L35,91c0,0-9.4-1.8-9.4-11.2c0,0-1.5-6.6,8.4-10.7h35.1
			C69,69,69,68.9,69,68.9z"/>
	</g>
</g>
<g opacity="0.66">
	<g>
		<path fill="#F7931E" d="M68.7,132.6c0,0,19.9-2.7,22.4-20.9c0,0-0.6-18.1-17.8-20.9l-37-0.2c0,0-10.7-1.6-10.6-10.8
			c0,0,1.1-9.9,8.8-11.1L78.1,69c0,0,35.8,2,35.5,42.9c-0.2,37.3-36.1,42.4-36.1,42.4h-43c0,0-9.4-1.8-9.4-11.3
			c0,0-1.5-6.6,8.5-10.6L68.7,132.6z"/>
	</g>
</g>
<g>
	<path fill="#F7931E" d="M121.1,16.9c0.7,0.5,1.6,1,2.8,1c1.5,0,2.5-1,2.5-2.6c0-1.4-0.6-2.2-2.2-3c-1.9-0.9-3.1-2.1-3.1-4.3
		c0-2.4,1.5-4.1,3.8-4.1c1.2,0,2,0.4,2.6,0.7l-0.4,1.5c-0.4-0.3-1.1-0.7-2.2-0.7c-1.6,0-2.2,1.2-2.2,2.2c0,1.4,0.7,2.1,2.4,3
		c1.9,1,3,2.2,3,4.4c0,2.4-1.3,4.4-4.1,4.4c-1.1,0-2.4-0.4-3-0.9L121.1,16.9z"/>
	<path fill="#F7931E" d="M123.5,28.3h-3.6v-1.6h8.7v1.6H125v13.5h-1.5V28.3z"/>
	<path fill="#F7931E" d="M121.5,49v9c0,3.4,1.1,4.8,2.8,4.8s2.9-1.4,2.9-4.8v-9h1.5v8.8c0,4.6-1.9,6.5-4.4,6.5
		c-2.4,0-4.2-1.7-4.2-6.4V49C120.1,49,121.5,49,121.5,49z"/>
	<path fill="#F7931E" d="M119.8,71.7c0.9-0.2,2-0.3,3.2-0.3c2.1,0,3.7,0.6,4.7,1.8c1,1.2,1.6,3,1.6,5.4s-0.6,4.5-1.6,5.9
		c-1.1,1.4-2.9,2.1-5.2,2.1c-1.1,0-1.9-0.1-2.8-0.2L119.8,71.7L119.8,71.7z M121.3,85.1c0.4,0.1,0.9,0.1,1.5,0.1c3.3,0,5-2.4,5-6.4
		c0-3.6-1.5-5.8-4.7-5.8c-0.8,0-1.3,0.1-1.7,0.2L121.3,85.1L121.3,85.1L121.3,85.1z"/>
	<path fill="#F7931E" d="M127.3,102h-4.6v5.4h5.1v1.6h-6.5V93.9h6.3v1.6h-4.8v4.8h4.6v1.6h-0.1V102z"/>
	<path fill="#F7931E" d="M119.9,131.6v-15.1h1.6l3.8,7.7c0.9,1.7,1.5,3.4,2.1,4.9l0,0c-0.1-2-0.2-3.9-0.2-6.2v-6.3h1.4v15.1h-1.5
		l-3.7-7.7c-0.8-1.6-1.6-3.4-2.1-5h-0.1c0.1,1.9,0.1,3.7,0.1,6.2v6.4H119.9z"/>
	<path fill="#F7931E" d="M123.5,140.6h-3.6v-1.6h8.7v1.6H125v13.5h-1.5V140.6z"/>
</g>
<g>
	<path fill="#F7931E" d="M135.9,41.8l1.4,5.3c0.3,1.2,0.6,2.2,0.8,3.3h0.1c0.2-1.1,0.6-2.2,0.9-3.3l1.7-5.3h1.6L144,47
		c0.4,1.3,0.7,2.3,0.9,3.4h0.1c0.2-1.1,0.5-2.2,0.8-3.4l1.5-5.2h1.9l-3.4,10.4h-1.7l-1.6-5c-0.4-1.2-0.7-2.2-0.9-3.4l0,0
		c-0.3,1.3-0.6,2.3-0.9,3.4l-1.7,5h-1.7l-3.1-10.4H135.9z"/>
	<path fill="#F7931E" d="M146.6,68.5c0,3.9-2.7,5.5-5.2,5.5c-2.8,0-5-2.1-5-5.4c0-3.5,2.3-5.5,5.2-5.5
		C144.6,63.2,146.6,65.3,146.6,68.5z M138.3,68.6c0,2.3,1.3,4,3.2,4c1.8,0,3.2-1.7,3.2-4.1c0-1.8-0.9-4-3.1-4
		C139.3,64.6,138.3,66.6,138.3,68.6z"/>
	<path fill="#F7931E" d="M139.6,88.2c0-1.2,0-2.3-0.1-3.3h1.7l0.1,2h0.1c0.5-1.4,1.6-2.3,2.9-2.3c0.2,0,0.4,0,0.5,0.1v1.8
		c-0.2,0-0.4-0.1-0.6-0.1c-1.3,0-2.3,1-2.5,2.4c0,0.3-0.1,0.6-0.1,0.9v5.6h-1.9L139.6,88.2L139.6,88.2z"/>
	<path fill="#F7931E" d="M139.9,111.3L139.9,111.3c0.3-0.4,0.7-0.8,1-1.2l3.1-3.6h2.3l-4,4.3l4.6,6.1h-2.3l-3.6-5l-1,1.1v3.9h-1.9
		v-15.3h1.9v9.7H139.9z"/>
</g>
</svg>
