<?xml version="1.0" encoding="utf-8"?>
<!-- Generator: Adobe Illustrator 18.0.0, SVG Export Plug-In . SVG Version: 6.00 Build 0)  -->
<!DOCTYPE svg PUBLIC "-//W3C//DTD SVG 1.1//EN" "http://www.w3.org/Graphics/SVG/1.1/DTD/svg11.dtd">
<svg version="1.1" id="Layer_1" xmlns="http://www.w3.org/2000/svg" xmlns:xlink="http://www.w3.org/1999/xlink" x="0px" y="0px"
	 viewBox="0 0 50 50" enable-background="new 0 0 50 50" xml:space="preserve">
<rect opacity="0.4" fill="#F7931E" enable-background="new    " width="50" height="50"/>
<g opacity="0.66">
	<g>
		<path fill="#F7931E" d="M21.6,21.5c0,0,6.2-0.9,7-6.6c0,0-0.2-5.7-5.6-6.4H11.3c0,0-3.3-0.5-3.3-3.3c0,0,0.3-3.1,2.7-3.5h13.6
			c0,0,11.2,0.6,11.2,13.3c0,11.7-11.2,13.3-11.2,13.3l-13.4,0.1c0,0-2.9-0.6-2.9-3.5c0,0-0.5-2.1,2.6-3.3L21.6,21.5
			C21.6,21.6,21.6,21.5,21.6,21.5z"/>
	</g>
</g>
<g opacity="0.66">
	<g>
		<path fill="#F7931E" d="M21.5,41.4c0,0,6.2-0.8,7-6.5c0,0-0.2-5.7-5.6-6.5l-11.6-0.1c0,0-3.3-0.5-3.3-3.4c0,0,0.3-3.1,2.8-3.5
			l13.6,0.1c0,0,11.2,0.6,11.1,13.4c-0.1,11.7-11.3,13.2-11.3,13.2H10.8c0,0-2.9-0.6-2.9-3.5c0,0-0.5-2.1,2.7-3.3L21.5,41.4z"/>
	</g>
</g>
<g>
	<path fill="#FFFFFF" d="M37.8,5.3c0.2,0.2,0.5,0.3,0.9,0.3c0.5,0,0.8-0.3,0.8-0.8c0-0.4-0.2-0.7-0.7-0.9c-0.6-0.3-1-0.7-1-1.3
		c0-0.8,0.5-1.3,1.2-1.3c0.4,0,0.6,0.1,0.8,0.2l-0.1,0.5c-0.1-0.1-0.3-0.2-0.7-0.2c-0.5,0-0.7,0.4-0.7,0.7c0,0.4,0.2,0.7,0.8,0.9
		C39.7,3.6,40,4,40,4.7c0,0.8-0.4,1.4-1.3,1.4c-0.3,0-0.8-0.1-0.9-0.3L37.8,5.3z"/>
	<path fill="#FFFFFF" d="M38.6,8.8h-1.1V8.3h2.7v0.5h-1.1v4.2h-0.5V8.8z"/>
	<path fill="#FFFFFF" d="M38,15.3v2.8c0,1.1,0.3,1.5,0.9,1.5c0.5,0,0.9-0.4,0.9-1.5v-2.8h0.5v2.8c0,1.4-0.6,2-1.4,2
		c-0.8,0-1.3-0.5-1.3-2v-2.8C37.5,15.3,38,15.3,38,15.3z"/>
	<path fill="#FFFFFF" d="M37.4,22.4c0.3-0.1,0.6-0.1,1-0.1c0.7,0,1.2,0.2,1.5,0.6c0.3,0.4,0.5,0.9,0.5,1.7s-0.2,1.4-0.5,1.8
		c-0.3,0.4-0.9,0.7-1.6,0.7c-0.3,0-0.6,0-0.9-0.1L37.4,22.4L37.4,22.4z M37.9,26.6c0.1,0,0.3,0,0.5,0c1,0,1.6-0.8,1.6-2
		c0-1.1-0.5-1.8-1.5-1.8c-0.2,0-0.4,0-0.5,0.1L37.9,26.6L37.9,26.6L37.9,26.6z"/>
	<path fill="#FFFFFF" d="M39.8,31.9h-1.4v1.7h1.6v0.5h-2v-4.7h2v0.5h-1.5v1.5h1.4L39.8,31.9L39.8,31.9L39.8,31.9z"/>
	<path fill="#FFFFFF" d="M37.5,41.1v-4.7H38l1.2,2.4c0.3,0.5,0.5,1.1,0.7,1.5l0,0c0-0.6-0.1-1.2-0.1-1.9v-2h0.4v4.7h-0.5l-1.2-2.4
		c-0.3-0.5-0.5-1.1-0.7-1.6h0c0,0.6,0,1.2,0,1.9v2H37.5z"/>
	<path fill="#FFFFFF" d="M38.6,43.9h-1.1v-0.5h2.7v0.5h-1.1v4.2h-0.5V43.9z"/>
</g>
<g>
	<path fill="#FFFFFF" d="M42.5,13.1l0.4,1.7c0.1,0.4,0.2,0.7,0.2,1h0c0.1-0.3,0.2-0.7,0.3-1l0.5-1.7h0.5l0.5,1.6
		c0.1,0.4,0.2,0.7,0.3,1.1h0c0.1-0.3,0.2-0.7,0.2-1.1l0.5-1.6h0.6l-1.1,3.2H45l-0.5-1.6c-0.1-0.4-0.2-0.7-0.3-1.1l0,0
		c-0.1,0.4-0.2,0.7-0.3,1.1l-0.5,1.6h-0.5l-1-3.3C41.9,13.1,42.5,13.1,42.5,13.1z"/>
	<path fill="#FFFFFF" d="M45.8,21.4c0,1.2-0.8,1.7-1.6,1.7c-0.9,0-1.6-0.7-1.6-1.7c0-1.1,0.7-1.7,1.6-1.7
		C45.2,19.8,45.8,20.4,45.8,21.4z M43.2,21.4c0,0.7,0.4,1.2,1,1.2c0.6,0,1-0.5,1-1.3c0-0.6-0.3-1.2-1-1.2
		C43.5,20.2,43.2,20.8,43.2,21.4z"/>
	<path fill="#FFFFFF" d="M43.6,27.6c0-0.4,0-0.7,0-1h0.5l0,0.6h0c0.2-0.4,0.5-0.7,0.9-0.7c0.1,0,0.1,0,0.2,0V27c-0.1,0-0.1,0-0.2,0
		c-0.4,0-0.7,0.3-0.8,0.8c0,0.1,0,0.2,0,0.3v1.7h-0.6L43.6,27.6L43.6,27.6z"/>
	<path fill="#FFFFFF" d="M43.7,34.8L43.7,34.8c0.1-0.1,0.2-0.2,0.3-0.4l1-1.1h0.7l-1.2,1.3l1.4,1.9h-0.7L44.1,35l-0.3,0.3v1.2h-0.6
		v-4.8h0.6L43.7,34.8L43.7,34.8z"/>
</g>
</svg>
