<?xml version="1.0" encoding="utf-8"?>
<!-- Generator: Adobe Illustrator 18.0.0, SVG Export Plug-In . SVG Version: 6.00 Build 0)  -->
<!DOCTYPE svg PUBLIC "-//W3C//DTD SVG 1.1//EN" "http://www.w3.org/Graphics/SVG/1.1/DTD/svg11.dtd">
<svg version="1.1" id="Layer_1" xmlns="http://www.w3.org/2000/svg" xmlns:xlink="http://www.w3.org/1999/xlink" x="0px" y="0px"
	 viewBox="0 0 160 160" enable-background="new 0 0 160 160" xml:space="preserve">
<g opacity="0.66">
	<g>
		<path fill="#9ECF4E" d="M71.6,28.5c0,0-19.5,2.8-21.7,20.5c0,0,0.8,17.7,17.5,20.2h36.3c0,0,10.5,1.5,10.5,10.5c0,0-1,9.8-8.5,11
			H62.8c0,0-35-1.8-35-41.8c0-36.5,35-41.7,35-41.7l42-0.3c0,0,9.2,1.8,9.2,11c0,0,1.5,6.5-8.2,10.5H71.6V28.5z"/>
	</g>
</g>
<g opacity="0.66">
	<g>
		<path fill="#9ECF4E" d="M71.5,90.8c0,0-19.5,2.6-21.9,20.4c0,0,0.6,17.7,17.4,20.4l36.2,0.2c0,0,10.5,1.6,10.4,10.6
			c0,0-1.1,9.7-8.6,10.9L62.3,153c0,0-35-2-34.7-42c0.2-36.5,35.3-41.5,35.3-41.5h42c0,0,9.2,1.8,9.2,11.1c0,0,1.5,6.5-8.3,10.4
			L71.5,90.8z"/>
	</g>
</g>
<g>
	<path fill="#9ECF4E" d="M136.2,27.6c-0.8,0.4-2.3,0.8-4.3,0.8c-4.6,0-8-2.9-8-8.2c0-5.1,3.4-8.5,8.4-8.5c2,0,3.3,0.4,3.8,0.7
		l-0.5,1.7c-0.8-0.4-1.9-0.7-3.3-0.7c-3.8,0-6.3,2.4-6.3,6.7c0,4,2.3,6.5,6.2,6.5c1.3,0,2.6-0.3,3.4-0.7L136.2,27.6z"/>
	<path fill="#9ECF4E" d="M127.1,47l-1.7,5.1h-2.2l5.5-16.2h2.5l5.5,16.2h-2.2l-1.7-5.1H127.1z M132.4,45.4l-1.6-4.7
		c-0.4-1.1-0.6-2-0.8-3h0c-0.2,1-0.5,1.9-0.8,2.9l-1.6,4.7H132.4z"/>
	<path fill="#9ECF4E" d="M126.2,59.9h2.1v14.4h6.9v1.8h-9V59.9z"/>
	<path fill="#9ECF4E" d="M126.2,83.9h2.1v14.4h6.9v1.8h-9V83.9z"/>
	<path fill="#9ECF4E" d="M126.1,113v9.6c0,3.6,1.6,5.2,3.8,5.2c2.4,0,3.9-1.6,3.9-5.2V113h2.1v9.4c0,5-2.6,7-6.1,7
		c-3.3,0-5.8-1.9-5.8-6.9V113H126.1z"/>
	<path fill="#9ECF4E" d="M125.6,150.6c0.9,0.6,2.3,1.1,3.7,1.1c2.1,0,3.4-1.1,3.4-2.8c0-1.5-0.9-2.4-3-3.2c-2.6-0.9-4.3-2.3-4.3-4.6
		c0-2.5,2.1-4.4,5.2-4.4c1.7,0,2.9,0.4,3.6,0.8l-0.6,1.7c-0.5-0.3-1.6-0.8-3.1-0.8c-2.2,0-3,1.3-3,2.4c0,1.5,1,2.3,3.2,3.1
		c2.7,1.1,4.1,2.4,4.1,4.8c0,2.5-1.8,4.7-5.7,4.7c-1.6,0-3.3-0.5-4.1-1L125.6,150.6z"/>
</g>
</svg>
