<?xml version="1.0" encoding="utf-8"?>
<!-- Generator: Adobe Illustrator 17.1.0, SVG Export Plug-In . SVG Version: 6.00 Build 0)  -->
<!DOCTYPE svg PUBLIC "-//W3C//DTD SVG 1.1//EN" "http://www.w3.org/Graphics/SVG/1.1/DTD/svg11.dtd">
<svg version="1.1" id="Layer_1" xmlns="http://www.w3.org/2000/svg" xmlns:xlink="http://www.w3.org/1999/xlink" x="0px" y="0px"
	 viewBox="0 0 960 560" enable-background="new 0 0 960 560" xml:space="preserve">
<g opacity="0.66">
	<g>
		<path fill="#9ECF4E" d="M450.6,99.8c0,0-68.2,9.8-76,71.8c0,0,2.8,61.9,61.2,70.7H563c0,0,36.8,5.2,36.8,36.8
			c0,0-3.5,34.3-29.8,38.5H419.8c0,0-122.5-6.3-122.5-146.3c0-127.8,122.5-146,122.5-146l147-1.1c0,0,32.2,6.3,32.2,38.5
			c0,0,5.2,22.8-28.7,36.8H450.6V99.8z"/>
	</g>
</g>
<g opacity="0.66">
	<g>
		<path fill="#9ECF4E" d="M450.2,317.8c0,0-68.2,9.1-76.6,71.4c0,0,2.1,62,60.9,71.4l126.7,0.7c0,0,36.8,5.6,36.4,37.1
			c0,0-3.8,34-30.1,38.1l-149.5-1c0,0-122.5-7-121.4-147c0.7-127.8,123.5-145.2,123.5-145.2h147c0,0,32.2,6.3,32.2,38.9
			c0,0,5.2,22.8-29.1,36.4L450.2,317.8z"/>
	</g>
</g>
<path fill="#9ECF4E" d="M672.1,180.9c-2.8,1.4-8.1,2.8-15.1,2.8c-16.1,0-28-10.1-28-28.7c0-17.9,11.9-29.8,29.4-29.8
	c7,0,11.6,1.4,13.3,2.5l-1.8,5.9c-2.8-1.4-6.6-2.4-11.6-2.4c-13.3,0-22,8.4-22,23.4c0,14,8,22.8,21.7,22.8c4.5,0,9.1-1,11.9-2.4
	L672.1,180.9z"/>
<path fill="#9ECF4E" d="M640.3,248.8l-5.9,17.8h-7.7l19.2-56.7h8.8l19.2,56.7h-7.7l-6-17.8H640.3z M658.8,243.2l-5.6-16.5
	c-1.4-3.8-2.1-7-2.8-10.5l0,0c-0.7,3.5-1.8,6.7-2.8,10.2l-5.6,16.4h16.8V243.2z"/>
<path fill="#9ECF4E" d="M637.1,294h7.3v50.4h24.2v6.3h-31.5V294z"/>
<path fill="#9ECF4E" d="M637.1,378h7.3v50.4h24.2v6.3h-31.5V378z"/>
</svg>
