<?xml version="1.0" encoding="utf-8"?>
<!-- Generator: Adobe Illustrator 18.0.0, SVG Export Plug-In . SVG Version: 6.00 Build 0)  -->
<!DOCTYPE svg PUBLIC "-//W3C//DTD SVG 1.1//EN" "http://www.w3.org/Graphics/SVG/1.1/DTD/svg11.dtd">
<svg version="1.1" id="Layer_1" xmlns="http://www.w3.org/2000/svg" xmlns:xlink="http://www.w3.org/1999/xlink" x="0px" y="0px"
	 viewBox="0 0 160 160" enable-background="new 0 0 160 160" xml:space="preserve">
<rect opacity="0.4" fill="#9ECF4E" width="160" height="160"/>
<g opacity="0.66">
	<g>
		<path fill="#9ECF4E" d="M73.7,28.6c0,0-19.2,2.8-21.4,20.2c0,0,0.8,17.4,17.2,19.9h35.8c0,0,10.4,1.5,10.4,10.4
			c0,0-1,9.7-8.4,10.9H65c0,0-34.5-1.8-34.5-41.2C30.5,12.8,65,7.6,65,7.6l41.4-0.3c0,0,9.1,1.8,9.1,10.9c0,0,1.5,6.4-8.1,10.4
			L73.7,28.6L73.7,28.6z"/>
	</g>
</g>
<g opacity="0.66">
	<g>
		<path fill="#9ECF4E" d="M73.6,90.1c0,0-19.2,2.6-21.6,20.1c0,0,0.6,17.5,17.2,20.1l35.7,0.2c0,0,10.4,1.6,10.3,10.5
			c0,0-1.1,9.6-8.5,10.7l-42.1-0.3c0,0-34.5-2-34.2-41.4c0.2-36,34.8-40.9,34.8-40.9h41.4c0,0,9.1,1.8,9.1,11c0,0,1.5,6.4-8.2,10.3
			L73.6,90.1z"/>
	</g>
</g>
<path fill="#9ECF4E" d="M136.1,51.5c-0.8,0.4-2.3,0.8-4.3,0.8c-4.5,0-7.9-2.8-7.9-8.1c0-5,3.4-8.4,8.3-8.4c2,0,3.3,0.4,3.7,0.7
	l-0.5,1.7c-0.8-0.4-1.9-0.7-3.3-0.7c-3.7,0-6.2,2.4-6.2,6.6c0,3.9,2.3,6.4,6.1,6.4c1.3,0,2.6-0.3,3.4-0.7L136.1,51.5z"/>
<path fill="#9ECF4E" d="M127.2,70.6l-1.7,5h-2.2l5.4-16h2.5l5.4,16h-2.2l-1.7-5H127.2z M132.4,69l-1.6-4.7c-0.4-1.1-0.6-2-0.8-3l0,0
	c-0.2,1-0.5,1.9-0.8,2.9l-1.6,4.6h4.7L132.4,69L132.4,69z"/>
<path fill="#9ECF4E" d="M126.3,83.4h2.1v14.2h6.8v1.8h-8.9V83.4z"/>
<path fill="#9ECF4E" d="M126.3,107h2.1v14.2h6.8v1.8h-8.9V107z"/>
</svg>
