<?xml version="1.0" encoding="utf-8"?>
<!-- Generator: Adobe Illustrator 18.0.0, SVG Export Plug-In . SVG Version: 6.00 Build 0)  -->
<!DOCTYPE svg PUBLIC "-//W3C//DTD SVG 1.1//EN" "http://www.w3.org/Graphics/SVG/1.1/DTD/svg11.dtd">
<svg version="1.1" id="Layer_1" xmlns="http://www.w3.org/2000/svg" xmlns:xlink="http://www.w3.org/1999/xlink" x="0px" y="0px"
	 viewBox="0 0 50 50" enable-background="new 0 0 50 50" xml:space="preserve">
<rect opacity="0.4" fill="#9ECF4E" enable-background="new    " width="50" height="50"/>
<g opacity="0.66">
	<g>
		<path fill="#9ECF4E" d="M23,8.9c0,0-6,0.9-6.7,6.3c0,0,0.2,5.4,5.4,6.2h11.2c0,0,3.2,0.5,3.2,3.2c0,0-0.3,3-2.6,3.4H20.3
			c0,0-10.8-0.6-10.8-12.9C9.5,4,20.3,2.4,20.3,2.4l12.9-0.1c0,0,2.8,0.6,2.8,3.4c0,0,0.5,2-2.5,3.3H23L23,8.9z"/>
	</g>
</g>
<g opacity="0.66">
	<g>
		<path fill="#9ECF4E" d="M23,28.2c0,0-6,0.8-6.8,6.3c0,0,0.2,5.5,5.4,6.3l11.2,0.1c0,0,3.2,0.5,3.2,3.3c0,0-0.3,3-2.7,3.3
			l-13.2-0.1c0,0-10.8-0.6-10.7-12.9c0.1-11.2,10.9-12.8,10.9-12.8h12.9c0,0,2.8,0.6,2.8,3.4c0,0,0.5,2-2.6,3.2L23,28.2z"/>
	</g>
</g>
<path fill="#FFFFFF" d="M42.5,16.1c-0.2,0.1-0.7,0.2-1.3,0.2c-1.4,0-2.5-0.9-2.5-2.5c0-1.6,1.1-2.6,2.6-2.6c0.6,0,1,0.1,1.2,0.2
	l-0.2,0.5c-0.3-0.1-0.6-0.2-1-0.2c-1.2,0-1.9,0.8-1.9,2.1c0,1.2,0.7,2,1.9,2c0.4,0,0.8-0.1,1.1-0.2L42.5,16.1z"/>
<path fill="#FFFFFF" d="M39.8,22.1l-0.5,1.6h-0.7l1.7-5H41l1.7,5H42l-0.5-1.6H39.8z M41.4,21.6l-0.5-1.5c-0.1-0.3-0.2-0.6-0.2-0.9
	l0,0c-0.1,0.3-0.2,0.6-0.3,0.9l-0.5,1.4L41.4,21.6L41.4,21.6L41.4,21.6z"/>
<path fill="#FFFFFF" d="M39.5,26.1h0.7v4.4h2.1v0.6h-2.8C39.5,31.1,39.5,26.1,39.5,26.1z"/>
<path fill="#FFFFFF" d="M39.5,33.4h0.7v4.4h2.1v0.6h-2.8C39.5,38.4,39.5,33.4,39.5,33.4z"/>
</svg>
