<?xml version="1.0" encoding="utf-8"?>
<!-- Generator: Adobe Illustrator 18.0.0, SVG Export Plug-In . SVG Version: 6.00 Build 0)  -->
<!DOCTYPE svg PUBLIC "-//W3C//DTD SVG 1.1//EN" "http://www.w3.org/Graphics/SVG/1.1/DTD/svg11.dtd">
<svg version="1.1" id="Layer_1" xmlns="http://www.w3.org/2000/svg" xmlns:xlink="http://www.w3.org/1999/xlink" x="0px" y="0px"
	 viewBox="0 0 160 160" enable-background="new 0 0 160 160" xml:space="preserve">
<g opacity="0.66">
	<g>
		<path fill="#F8DA25" d="M80.6,28.5c0,0-19.5,2.8-21.7,20.5c0,0,0.8,17.7,17.5,20.2h36.3c0,0,10.5,1.5,10.5,10.5c0,0-1,9.8-8.5,11
			H71.8c0,0-35-1.8-35-41.8c0-36.5,35-41.7,35-41.7l42-0.3c0,0,9.2,1.8,9.2,11c0,0,1.5,6.5-8.2,10.5H80.6z"/>
	</g>
</g>
<g opacity="0.66">
	<g>
		<path fill="#F8DA25" d="M80.5,90.8c0,0-19.5,2.6-21.9,20.4c0,0,0.6,17.7,17.4,20.4l36.2,0.2c0,0,10.5,1.6,10.4,10.6
			c0,0-1.1,9.7-8.6,10.9L71.3,153c0,0-35-2-34.7-42c0.2-36.5,35.3-41.5,35.3-41.5l42,0c0,0,9.2,1.8,9.2,11.1c0,0,1.5,6.5-8.3,10.4
			L80.5,90.8z"/>
	</g>
</g>
</svg>
