<?xml version="1.0" encoding="utf-8"?>
<!-- Generator: Adobe Illustrator 18.0.0, SVG Export Plug-In . SVG Version: 6.00 Build 0)  -->
<!DOCTYPE svg PUBLIC "-//W3C//DTD SVG 1.1//EN" "http://www.w3.org/Graphics/SVG/1.1/DTD/svg11.dtd">
<svg version="1.1" id="Layer_1" xmlns="http://www.w3.org/2000/svg" xmlns:xlink="http://www.w3.org/1999/xlink" x="0px" y="0px"
	 viewBox="0 0 160 160" enable-background="new 0 0 160 160" xml:space="preserve">
<rect opacity="0.4" fill="#F8DA25" width="160" height="160"/>
<g opacity="0.66">
	<g>
		<path fill="#F8DA25" d="M75.6,28.4c0,0-19.5,2.8-21.7,20.5c0,0,0.8,17.7,17.5,20.2h36.3c0,0,10.5,1.5,10.5,10.5c0,0-1,9.8-8.5,11
			H66.8c0,0-35-1.8-35-41.8c0-36.5,35-41.7,35-41.7l42-0.3c0,0,9.2,1.8,9.2,11c0,0,1.5,6.5-8.2,10.5H75.6V28.4z"/>
	</g>
</g>
<g opacity="0.66">
	<g>
		<path fill="#F8DA25" d="M75.5,90.7c0,0-19.5,2.6-21.9,20.4c0,0,0.6,17.7,17.4,20.4l36.2,0.2c0,0,10.5,1.6,10.4,10.6
			c0,0-1.1,9.7-8.6,10.9l-42.7-0.3c0,0-35-2-34.7-42c0.2-36.5,35.3-41.5,35.3-41.5h42c0,0,9.2,1.8,9.2,11.1c0,0,1.5,6.5-8.3,10.4
			L75.5,90.7z"/>
	</g>
</g>
<g>
	<path fill="#F8DA25" d="M126.3,27.4c0.9,0.6,2.3,1.1,3.7,1.1c2.1,0,3.4-1.1,3.4-2.8c0-1.5-0.9-2.4-3-3.2c-2.6-0.9-4.3-2.3-4.3-4.6
		c0-2.5,2.1-4.4,5.2-4.4c1.7,0,2.9,0.4,3.6,0.8l-0.6,1.7c-0.5-0.3-1.6-0.8-3.1-0.8c-2.2,0-3,1.3-3,2.4c0,1.5,1,2.3,3.2,3.1
		c2.7,1.1,4.1,2.4,4.1,4.8c0,2.5-1.8,4.7-5.7,4.7c-1.6,0-3.3-0.5-4.1-1L126.3,27.4z"/>
	<path fill="#F8DA25" d="M135,46.4h-6.3v5.8h7V54h-9.1V37.8h8.7v1.8h-6.6v5.1h6.3V46.4z"/>
	<path fill="#F8DA25" d="M127.8,72.9l-1.7,5.1h-2.2l5.5-16.2h2.5l5.5,16.2h-2.2l-1.7-5.1H127.8z M133.1,71.3l-1.6-4.7
		c-0.4-1.1-0.6-2-0.8-3l0,0c-0.2,1-0.5,1.9-0.8,2.9l-1.6,4.7L133.1,71.3L133.1,71.3z"/>
	<path fill="#F8DA25" d="M126,86c1.1-0.2,2.6-0.3,4-0.3c2.2,0,3.7,0.4,4.7,1.3c0.8,0.7,1.3,1.8,1.3,3.1c0,2.1-1.3,3.6-3,4.1v0.1
		c1.2,0.4,2,1.6,2.4,3.3c0.5,2.3,0.9,3.8,1.2,4.4h-2.2c-0.3-0.5-0.6-1.8-1.1-3.9c-0.5-2.2-1.3-3.1-3.2-3.1h-2v7H126V86z M128.1,93.4
		h2.1c2.2,0,3.6-1.2,3.6-3.1c0-2.1-1.5-3-3.7-3c-1,0-1.7,0.1-2.1,0.2v5.9H128.1z"/>
	<path fill="#F8DA25" d="M136.8,125.5c-0.8,0.4-2.3,0.8-4.3,0.8c-4.6,0-8-2.9-8-8.2c0-5.1,3.4-8.5,8.4-8.5c2,0,3.3,0.4,3.8,0.7
		l-0.5,1.7c-0.8-0.4-1.9-0.7-3.3-0.7c-3.8,0-6.3,2.4-6.3,6.7c0,4,2.3,6.5,6.2,6.5c1.3,0,2.6-0.3,3.4-0.7L136.8,125.5z"/>
	<path fill="#F8DA25" d="M126.8,133.8v6.8h7.8v-6.8h2.1V150h-2.1v-7.6h-7.8v7.6h-2.1v-16.2H126.8z"/>
</g>
</svg>
