<?xml version="1.0" encoding="utf-8"?>
<!-- Generator: Adobe Illustrator 18.0.0, SVG Export Plug-In . SVG Version: 6.00 Build 0)  -->
<!DOCTYPE svg PUBLIC "-//W3C//DTD SVG 1.1//EN" "http://www.w3.org/Graphics/SVG/1.1/DTD/svg11.dtd">
<svg version="1.1" id="Layer_1" xmlns="http://www.w3.org/2000/svg" xmlns:xlink="http://www.w3.org/1999/xlink" x="0px" y="0px"
	 viewBox="0 0 50 50" enable-background="new 0 0 50 50" xml:space="preserve">
<rect opacity="0.4" fill="#F8DA25" enable-background="new    " width="50" height="50"/>
<g opacity="0.66">
	<g>
		<path fill="#F8DA25" d="M23.6,8.9c0,0-6.1,0.9-6.8,6.4c0,0,0.2,5.5,5.5,6.3h11.3c0,0,3.3,0.5,3.3,3.3c0,0-0.3,3.1-2.7,3.4H20.9
			c0,0-10.9-0.6-10.9-13.1c0-11.4,10.9-13,10.9-13L34,2.1c0,0,2.9,0.6,2.9,3.4c0,0,0.5,2-2.6,3.3L23.6,8.9L23.6,8.9z"/>
	</g>
</g>
<g opacity="0.66">
	<g>
		<path fill="#F8DA25" d="M23.6,28.3c0,0-6.1,0.8-6.8,6.4c0,0,0.2,5.5,5.4,6.4l11.3,0.1c0,0,3.3,0.5,3.2,3.3c0,0-0.3,3-2.7,3.4
			l-13.3-0.1c0,0-10.9-0.6-10.8-13.1c0.1-11.4,11-13,11-13H34c0,0,2.9,0.6,2.9,3.5c0,0,0.5,2-2.6,3.2L23.6,28.3z"/>
	</g>
</g>
<g>
	<path fill="#FFFFFF" d="M39.5,8.6c0.3,0.2,0.7,0.3,1.2,0.3c0.7,0,1.1-0.3,1.1-0.9c0-0.5-0.3-0.7-0.9-1c-0.8-0.3-1.3-0.7-1.3-1.4
		c0-0.8,0.7-1.4,1.6-1.4c0.5,0,0.9,0.1,1.1,0.2L42,5c-0.2-0.1-0.5-0.2-1-0.2c-0.7,0-0.9,0.4-0.9,0.8c0,0.5,0.3,0.7,1,1
		c0.8,0.3,1.3,0.8,1.3,1.5c0,0.8-0.6,1.5-1.8,1.5c-0.5,0-1-0.2-1.3-0.3L39.5,8.6z"/>
	<path fill="#FFFFFF" d="M42.2,14.5h-2v1.8h2.2v0.6h-2.8v-5.1h2.7v0.6h-2.1V14h2V14.5z"/>
	<path fill="#FFFFFF" d="M39.9,22.8l-0.5,1.6h-0.7l1.7-5.1h0.8l1.7,5.1h-0.7l-0.5-1.6H39.9z M41.6,22.3l-0.5-1.5
		c-0.1-0.3-0.2-0.6-0.2-0.9l0,0c-0.1,0.3-0.2,0.6-0.2,0.9l-0.5,1.5L41.6,22.3L41.6,22.3z"/>
	<path fill="#FFFFFF" d="M39.4,26.9c0.3-0.1,0.8-0.1,1.2-0.1c0.7,0,1.2,0.1,1.5,0.4c0.2,0.2,0.4,0.6,0.4,1c0,0.7-0.4,1.1-0.9,1.3v0
		c0.4,0.1,0.6,0.5,0.8,1c0.2,0.7,0.3,1.2,0.4,1.4H42c-0.1-0.2-0.2-0.6-0.3-1.2c-0.2-0.7-0.4-1-1-1H40v2.2h-0.7V26.9z M40,29.2h0.7
		c0.7,0,1.1-0.4,1.1-1c0-0.7-0.5-0.9-1.2-0.9c-0.3,0-0.5,0-0.7,0.1L40,29.2L40,29.2z"/>
	<path fill="#FFFFFF" d="M42.8,39.2c-0.2,0.1-0.7,0.2-1.3,0.2c-1.4,0-2.5-0.9-2.5-2.6c0-1.6,1.1-2.7,2.6-2.7c0.6,0,1,0.1,1.2,0.2
		L42.6,35c-0.2-0.1-0.6-0.2-1-0.2c-1.2,0-2,0.8-2,2.1c0,1.2,0.7,2,1.9,2c0.4,0,0.8-0.1,1.1-0.2L42.8,39.2z"/>
	<path fill="#FFFFFF" d="M39.6,41.8v2.1h2.4v-2.1h0.7v5.1h-0.7v-2.4h-2.4v2.4H39v-5.1H39.6z"/>
</g>
</svg>
