<?xml version="1.0" encoding="utf-8"?>
<!-- Generator: Adobe Illustrator 18.0.0, SVG Export Plug-In . SVG Version: 6.00 Build 0)  -->
<!DOCTYPE svg PUBLIC "-//W3C//DTD SVG 1.1//EN" "http://www.w3.org/Graphics/SVG/1.1/DTD/svg11.dtd">
<svg version="1.1" id="Layer_1" xmlns="http://www.w3.org/2000/svg" xmlns:xlink="http://www.w3.org/1999/xlink" x="0px" y="0px"
	 viewBox="0 0 160 160" enable-background="new 0 0 160 160" xml:space="preserve">
<g opacity="0.66">
	<g>
		<path fill="#97DCEA" d="M91.4,48.4c0,0-2.8-19.5-20.5-21.8c0,0-17.7,0.8-20.2,17.5v36.3c0,0-1.5,10.5-10.5,10.5c0,0-9.8-1-11-8.5
			V39.7c0,0,1.8-35,41.8-35c36.5,0,41.7,35,41.7,35l0.3,42c0,0-1.8,9.2-11,9.2c0,0-6.5,1.5-10.5-8.2L91.4,48.4L91.4,48.4z"/>
	</g>
</g>
<g opacity="0.66">
	<g>
		<path fill="#97DCEA" d="M50.4,111.5c0,0,2.6,19.5,20.4,21.9c0,0,17.7-0.6,20.4-17.4l0.2-36.2c0,0,1.6-10.5,10.6-10.4
			c0,0,9.7,1.1,10.9,8.6l-0.3,42.7c0,0-2,35-42,34.7c-36.5-0.2-41.5-35.3-41.5-35.3v-42c0,0,1.8-9.2,11.1-9.2c0,0,6.5-1.5,10.4,8.3
			L50.4,111.5z"/>
	</g>
</g>
<g>
	<path fill="#97DCEA" d="M130.6,33.8h-6.3v5.8h7v1.8h-9.1V25.2h8.7V27h-6.6v5.1h6.3V33.8z"/>
	<path fill="#97DCEA" d="M120.3,65.4V49.2h2.3l5.2,8.2c1.2,1.9,2.1,3.6,2.9,5.3l0,0c-0.2-2.2-0.2-4.1-0.2-6.6v-6.8h2v16.2h-2.1
		l-5.1-8.2c-1.1-1.8-2.2-3.6-3-5.4l-0.1,0c0.1,2,0.2,4,0.2,6.7v6.9H120.3z"/>
	<path fill="#97DCEA" d="M121.7,73.5c1.1-0.2,2.6-0.3,4-0.3c2.2,0,3.7,0.4,4.7,1.3c0.8,0.7,1.3,1.8,1.3,3.1c0,2.1-1.3,3.6-3,4.1v0.1
		c1.2,0.4,2,1.6,2.4,3.3c0.5,2.3,0.9,3.8,1.2,4.4h-2.2c-0.3-0.5-0.6-1.8-1.1-3.9c-0.5-2.2-1.3-3.1-3.2-3.1h-2v7h-2.1V73.5z
		 M123.8,80.8h2.1c2.2,0,3.6-1.2,3.6-3.1c0-2.1-1.5-3-3.7-3c-1,0-1.7,0.1-2.1,0.2V80.8z"/>
	<path fill="#97DCEA" d="M133.7,105.2c0,5.6-3.4,8.5-7.5,8.5c-4.3,0-7.3-3.3-7.3-8.2c0-5.1,3.2-8.5,7.5-8.5
		C130.9,97,133.7,100.4,133.7,105.2z M121.2,105.4c0,3.5,1.9,6.6,5.2,6.6c3.3,0,5.2-3,5.2-6.7c0-3.2-1.7-6.6-5.2-6.6
		C122.9,98.7,121.2,101.9,121.2,105.4z"/>
	<path fill="#97DCEA" d="M122.5,121.2h2.1v14.4h6.9v1.8h-9V121.2z"/>
</g>
</svg>
