<?xml version="1.0" encoding="utf-8"?>
<!-- Generator: Adobe Illustrator 18.0.0, SVG Export Plug-In . SVG Version: 6.00 Build 0)  -->
<!DOCTYPE svg PUBLIC "-//W3C//DTD SVG 1.1//EN" "http://www.w3.org/Graphics/SVG/1.1/DTD/svg11.dtd">
<svg version="1.1" id="Layer_1" xmlns="http://www.w3.org/2000/svg" xmlns:xlink="http://www.w3.org/1999/xlink" x="0px" y="0px"
	 viewBox="0 0 160 160" enable-background="new 0 0 160 160" xml:space="preserve">
<rect opacity="0.4" fill="#97DCEA" width="160" height="160"/>
<g>
	<g opacity="0.66">
		<g>
			<path fill="#97DCEA" d="M97.4,48.7c0,0-2.8-19.5-20.5-21.8c0,0-17.7,0.8-20.2,17.5v36.3c0,0-1.5,10.5-10.5,10.5c0,0-9.8-1-11-8.5
				V40C35.2,40,37,5,77,5c36.5,0,41.7,35,41.7,35l0.3,42c0,0-1.8,9.2-11,9.2c0,0-6.5,1.5-10.5-8.2L97.4,48.7L97.4,48.7z"/>
		</g>
	</g>
	<g opacity="0.66">
		<g>
			<path fill="#97DCEA" d="M56.4,111.8c0,0,2.6,19.5,20.4,21.9c0,0,17.7-0.6,20.4-17.4l0.2-36.2c0,0,1.6-10.5,10.6-10.4
				c0,0,9.7,1.1,10.9,8.6l-0.3,42.7c0,0-2,35-42,34.7c-36.5-0.2-41.5-35.3-41.5-35.3v-42c0,0,1.8-9.2,11.1-9.2c0,0,6.5-1.5,10.4,8.3
				L56.4,111.8z"/>
		</g>
	</g>
	<g>
		<path fill="#97DCEA" d="M136.6,34.1h-6.3v5.8h7v1.8h-9.1V25.5h8.7v1.8h-6.6v5.1h6.3V34.1z"/>
		<path fill="#97DCEA" d="M126.3,65.7V49.5h2.3l5.2,8.2c1.2,1.9,2.1,3.6,2.9,5.3l0,0c-0.2-2.2-0.2-4.1-0.2-6.6v-6.8h2v16.2h-2.1
			l-5.1-8.2c-1.1-1.8-2.2-3.6-3-5.4h-0.1c0.1,2,0.2,4,0.2,6.7v6.9L126.3,65.7L126.3,65.7z"/>
		<path fill="#97DCEA" d="M127.7,73.8c1.1-0.2,2.6-0.3,4-0.3c2.2,0,3.7,0.4,4.7,1.3c0.8,0.7,1.3,1.8,1.3,3.1c0,2.1-1.3,3.6-3,4.1
			v0.1c1.2,0.4,2,1.6,2.4,3.3c0.5,2.3,0.9,3.8,1.2,4.4h-2.2c-0.3-0.5-0.6-1.8-1.1-3.9c-0.5-2.2-1.3-3.1-3.2-3.1h-2v7h-2.1
			C127.7,89.8,127.7,73.8,127.7,73.8z M129.8,81.1h2.1c2.2,0,3.6-1.2,3.6-3.1c0-2.1-1.5-3-3.7-3c-1,0-1.7,0.1-2.1,0.2L129.8,81.1
			L129.8,81.1z"/>
		<path fill="#97DCEA" d="M139.7,105.5c0,5.6-3.4,8.5-7.5,8.5c-4.3,0-7.3-3.3-7.3-8.2c0-5.1,3.2-8.5,7.5-8.5
			C136.9,97.3,139.7,100.7,139.7,105.5z M127.2,105.7c0,3.5,1.9,6.6,5.2,6.6c3.3,0,5.2-3,5.2-6.7c0-3.2-1.7-6.6-5.2-6.6
			C128.9,99,127.2,102.2,127.2,105.7z"/>
		<path fill="#97DCEA" d="M128.5,121.5h2.1v14.4h6.9v1.8h-9V121.5z"/>
	</g>
</g>
</svg>
