<?xml version="1.0" encoding="utf-8"?>
<!-- Generator: Adobe Illustrator 18.0.0, SVG Export Plug-In . SVG Version: 6.00 Build 0)  -->
<!DOCTYPE svg PUBLIC "-//W3C//DTD SVG 1.1//EN" "http://www.w3.org/Graphics/SVG/1.1/DTD/svg11.dtd">
<svg version="1.1" id="Layer_1" xmlns="http://www.w3.org/2000/svg" xmlns:xlink="http://www.w3.org/1999/xlink" x="0px" y="0px"
	 viewBox="0 0 50 50" enable-background="new 0 0 50 50" xml:space="preserve">
<rect opacity="0.4" fill="#97DCEA" enable-background="new    " width="50" height="50"/>
<g opacity="0.66">
	<g>
		<path fill="#97DCEA" d="M30.4,15.2c0,0-0.9-6.1-6.4-6.8c0,0-5.5,0.2-6.3,5.5v11.3c0,0-0.5,3.3-3.3,3.3c0,0-3.1-0.3-3.4-2.7V12.5
			c0,0,0.6-10.9,13.1-10.9c11.4,0,13,10.9,13,10.9l0.1,13.1c0,0-0.6,2.9-3.4,2.9c0,0-2,0.5-3.3-2.6L30.4,15.2L30.4,15.2z"/>
	</g>
</g>
<g opacity="0.66">
	<g>
		<path fill="#97DCEA" d="M17.6,34.9c0,0,0.8,6.1,6.4,6.8c0,0,5.5-0.2,6.4-5.4L30.4,25c0,0,0.5-3.3,3.3-3.2c0,0,3,0.3,3.4,2.7
			l-0.1,13.3c0,0-0.6,10.9-13.1,10.8c-11.4-0.1-13-11-13-11V24.5c0,0,0.6-2.9,3.5-2.9c0,0,2-0.5,3.3,2.6L17.6,34.9z"/>
	</g>
</g>
<g>
	<path fill="#FFFFFF" d="M42.7,10.7h-2v1.8h2.2V13h-2.8V8h2.7v0.6h-2.1v1.6h2C42.7,10.1,42.7,10.7,42.7,10.7z"/>
	<path fill="#FFFFFF" d="M39.5,20.5v-5.1h0.7l1.6,2.6c0.4,0.6,0.7,1.1,0.9,1.7l0,0c-0.1-0.7-0.1-1.3-0.1-2.1v-2.1h0.6v5.1h-0.7
		L41,18c-0.3-0.6-0.7-1.1-0.9-1.7h0c0,0.6,0.1,1.2,0.1,2.1v2.2L39.5,20.5L39.5,20.5z"/>
	<path fill="#FFFFFF" d="M39.9,23.1c0.3-0.1,0.8-0.1,1.2-0.1c0.7,0,1.2,0.1,1.5,0.4c0.2,0.2,0.4,0.6,0.4,1c0,0.7-0.4,1.1-0.9,1.3v0
		c0.4,0.1,0.6,0.5,0.7,1c0.2,0.7,0.3,1.2,0.4,1.4h-0.7c-0.1-0.2-0.2-0.6-0.3-1.2c-0.2-0.7-0.4-1-1-1h-0.6v2.2h-0.7
		C39.9,28.1,39.9,23.1,39.9,23.1z M40.6,25.3h0.7c0.7,0,1.1-0.4,1.1-1c0-0.7-0.5-0.9-1.2-0.9c-0.3,0-0.5,0-0.7,0.1L40.6,25.3
		L40.6,25.3z"/>
	<path fill="#FFFFFF" d="M43.7,33c0,1.8-1.1,2.7-2.3,2.7c-1.3,0-2.3-1-2.3-2.6c0-1.6,1-2.7,2.3-2.7C42.8,30.4,43.7,31.5,43.7,33z
		 M39.8,33c0,1.1,0.6,2.1,1.6,2.1c1,0,1.6-0.9,1.6-2.1c0-1-0.5-2.1-1.6-2.1S39.8,31.9,39.8,33z"/>
	<path fill="#FFFFFF" d="M40.2,38h0.7v4.5H43V43h-2.8V38z"/>
</g>
</svg>
