<?xml version="1.0" encoding="utf-8"?>
<!-- Generator: Adobe Illustrator 18.0.0, SVG Export Plug-In . SVG Version: 6.00 Build 0)  -->
<!DOCTYPE svg PUBLIC "-//W3C//DTD SVG 1.1//EN" "http://www.w3.org/Graphics/SVG/1.1/DTD/svg11.dtd">
<svg version="1.1" id="Layer_1" xmlns="http://www.w3.org/2000/svg" xmlns:xlink="http://www.w3.org/1999/xlink" x="0px" y="0px"
	 viewBox="0 0 160 160" enable-background="new 0 0 160 160" xml:space="preserve">
<g opacity="0.66">
	<g>
		<path fill="#662D91" d="M100.4,48.4c0,0-2.8-19.5-20.5-21.8c0,0-17.7,0.8-20.2,17.5v36.3c0,0-1.5,10.5-10.5,10.5c0,0-9.8-1-11-8.5
			V39.7c0,0,1.8-35,41.8-35c36.5,0,41.7,35,41.7,35l0.3,42c0,0-1.8,9.2-11,9.2c0,0-6.5,1.5-10.5-8.2V48.4z"/>
	</g>
</g>
<g opacity="0.66">
	<g>
		<path fill="#662D91" d="M59.4,111.5c0,0,2.6,19.5,20.4,21.9c0,0,17.7-0.6,20.4-17.4l0.2-36.2c0,0,1.6-10.5,10.6-10.4
			c0,0,9.7,1.1,10.9,8.6l-0.3,42.7c0,0-2,35-42,34.7c-36.5-0.2-41.5-35.3-41.5-35.3l0-42c0,0,1.8-9.2,11.1-9.2c0,0,6.5-1.5,10.4,8.3
			L59.4,111.5z"/>
	</g>
</g>
</svg>
