<?xml version="1.0" encoding="utf-8"?>
<!-- Generator: Adobe Illustrator 18.0.0, SVG Export Plug-In . SVG Version: 6.00 Build 0)  -->
<!DOCTYPE svg PUBLIC "-//W3C//DTD SVG 1.1//EN" "http://www.w3.org/Graphics/SVG/1.1/DTD/svg11.dtd">
<svg version="1.1" id="Layer_1" xmlns="http://www.w3.org/2000/svg" xmlns:xlink="http://www.w3.org/1999/xlink" x="0px" y="0px"
	 viewBox="0 0 160 160" enable-background="new 0 0 160 160" xml:space="preserve">
<g opacity="0.66">
	<g>
		<path fill="#662D91" d="M93.4,48.4c0,0-2.8-19.5-20.5-21.8c0,0-17.7,0.8-20.2,17.5v36.3c0,0-1.5,10.5-10.5,10.5c0,0-9.8-1-11-8.5
			V39.7c0,0,1.8-35,41.8-35c36.5,0,41.7,35,41.7,35l0.3,42c0,0-1.8,9.2-11,9.2c0,0-6.5,1.5-10.5-8.2L93.4,48.4L93.4,48.4z"/>
	</g>
</g>
<g opacity="0.66">
	<g>
		<path fill="#662D91" d="M52.4,111.5c0,0,2.6,19.5,20.4,21.9c0,0,17.7-0.6,20.4-17.4l0.2-36.2c0,0,1.6-10.5,10.6-10.4
			c0,0,9.7,1.1,10.9,8.6l-0.3,42.7c0,0-2,35-42,34.7c-36.5-0.2-41.5-35.3-41.5-35.3v-42c0,0,1.8-9.2,11.1-9.2c0,0,6.5-1.5,10.4,8.3
			L52.4,111.5z"/>
	</g>
</g>
<g>
	<path fill="#662D91" d="M130.2,14.6c-1.4,0-2.5,0.5-3.3,1.5c-0.8,1-1.2,2.4-1.2,4.1c0,1.8,0.4,3.2,1.2,4.2c0.8,0.9,1.9,1.4,3.4,1.4
		c0.6,0,1.2-0.1,1.8-0.2c0.6-0.1,1.2-0.3,1.9-0.5v2.1c-1.2,0.4-2.5,0.7-4,0.7c-2.2,0-3.9-0.7-5.1-2s-1.8-3.2-1.8-5.7
		c0-1.6,0.3-2.9,0.9-4.1c0.6-1.2,1.4-2.1,2.5-2.7s2.3-0.9,3.8-0.9c1.5,0,2.9,0.3,4.2,1l-0.9,2c-0.5-0.2-1-0.4-1.6-0.6
		C131.4,14.6,130.8,14.6,130.2,14.6z"/>
	<path fill="#662D91" d="M135.5,41.1c0,2.4-0.6,4.3-1.8,5.7c-1.2,1.4-2.9,2-5.2,2c-2.3,0-4-0.7-5.2-2c-1.2-1.3-1.8-3.3-1.8-5.7
		s0.6-4.4,1.8-5.7c1.2-1.3,3-2,5.2-2c2.2,0,4,0.7,5.2,2S135.5,38.7,135.5,41.1z M124.1,41.1c0,1.8,0.4,3.2,1.1,4.2
		c0.7,1,1.8,1.4,3.3,1.4c1.5,0,2.6-0.5,3.3-1.4c0.7-0.9,1.1-2.3,1.1-4.2c0-1.8-0.4-3.2-1.1-4.2c-0.7-1-1.8-1.4-3.3-1.4
		c-1.5,0-2.6,0.5-3.3,1.4C124.5,37.9,124.1,39.3,124.1,41.1z"/>
	<path fill="#662D91" d="M134.4,54.7v9.7c0,1.1-0.2,2.1-0.7,2.9c-0.5,0.8-1.2,1.5-2.1,1.9c-0.9,0.4-2,0.7-3.2,0.7
		c-1.9,0-3.3-0.5-4.3-1.5c-1-1-1.5-2.3-1.5-4.1v-9.7h2.5v9.5c0,1.2,0.3,2.1,0.9,2.7s1.5,0.9,2.6,0.9c2.3,0,3.5-1.2,3.5-3.6v-9.5
		H134.4z"/>
	<path fill="#662D91" d="M126.2,84.7v6h-2.5v-15h4.2c1.9,0,3.4,0.4,4.3,1.1s1.4,1.8,1.4,3.3c0,1.9-1,3.2-2.9,4l4.2,6.6h-2.8l-3.6-6
		H126.2z M126.2,82.6h1.7c1.1,0,2-0.2,2.5-0.6s0.8-1.1,0.8-1.9c0-0.8-0.3-1.5-0.8-1.8s-1.4-0.6-2.5-0.6h-1.6V82.6z"/>
	<path fill="#662D91" d="M133.3,107.6c0,1.3-0.5,2.4-1.4,3.1c-1,0.8-2.3,1.1-4,1.1s-3.1-0.3-4.2-0.8v-2.3c0.7,0.3,1.4,0.6,2.2,0.8
		c0.8,0.2,1.5,0.3,2.1,0.3c1,0,1.7-0.2,2.1-0.6c0.5-0.4,0.7-0.9,0.7-1.5c0-0.6-0.2-1-0.6-1.4s-1.3-0.9-2.6-1.4
		c-1.4-0.6-2.3-1.2-2.9-1.9c-0.6-0.7-0.8-1.6-0.8-2.6c0-1.3,0.4-2.2,1.3-3c0.9-0.7,2.1-1.1,3.6-1.1c1.4,0,2.9,0.3,4.3,0.9l-0.8,2
		c-1.3-0.6-2.5-0.8-3.6-0.8c-0.8,0-1.4,0.2-1.8,0.5c-0.4,0.3-0.6,0.8-0.6,1.4c0,0.4,0.1,0.7,0.2,1c0.2,0.3,0.4,0.5,0.8,0.8
		s1.1,0.6,2,1c1.1,0.5,1.9,0.9,2.4,1.3c0.5,0.4,0.9,0.8,1.1,1.3S133.3,106.9,133.3,107.6z"/>
	<path fill="#662D91" d="M133.1,132.7h-8.5v-15h8.5v2.1h-6v4.1h5.7v2.1h-5.7v4.7h6V132.7z"/>
	<path fill="#662D91" d="M133.3,149.6c0,1.3-0.5,2.4-1.4,3.1c-1,0.8-2.3,1.1-4,1.1s-3.1-0.3-4.2-0.8v-2.3c0.7,0.3,1.4,0.6,2.2,0.8
		c0.8,0.2,1.5,0.3,2.1,0.3c1,0,1.7-0.2,2.1-0.6c0.5-0.4,0.7-0.9,0.7-1.5c0-0.6-0.2-1-0.6-1.4s-1.3-0.9-2.6-1.4
		c-1.4-0.6-2.3-1.2-2.9-1.9c-0.6-0.7-0.8-1.6-0.8-2.6c0-1.3,0.4-2.2,1.3-3c0.9-0.7,2.1-1.1,3.6-1.1c1.4,0,2.9,0.3,4.3,0.9l-0.8,2
		c-1.3-0.6-2.5-0.8-3.6-0.8c-0.8,0-1.4,0.2-1.8,0.5c-0.4,0.3-0.6,0.8-0.6,1.4c0,0.4,0.1,0.7,0.2,1c0.2,0.3,0.4,0.5,0.8,0.8
		s1.1,0.6,2,1c1.1,0.5,1.9,0.9,2.4,1.3c0.5,0.4,0.9,0.8,1.1,1.3S133.3,148.9,133.3,149.6z"/>
</g>
</svg>
