<?xml version="1.0" encoding="utf-8"?>
<!-- Generator: Adobe Illustrator 18.0.0, SVG Export Plug-In . SVG Version: 6.00 Build 0)  -->
<!DOCTYPE svg PUBLIC "-//W3C//DTD SVG 1.1//EN" "http://www.w3.org/Graphics/SVG/1.1/DTD/svg11.dtd">
<svg version="1.1" id="Layer_1" xmlns="http://www.w3.org/2000/svg" xmlns:xlink="http://www.w3.org/1999/xlink" x="0px" y="0px"
	 viewBox="0 0 160 160" enable-background="new 0 0 160 160" xml:space="preserve">
<rect opacity="0.4" fill="#662D91" width="160" height="160"/>
<g opacity="0.66">
	<g>
		<path fill="#662D91" d="M94.4,48.3c0,0-2.8-19.5-20.5-21.8c0,0-17.7,0.8-20.2,17.5v36.3c0,0-1.5,10.5-10.5,10.5c0,0-9.8-1-11-8.5
			V39.6c0,0,1.8-35,41.8-35c36.5,0,41.7,35,41.7,35l0.3,42c0,0-1.8,9.2-11,9.2c0,0-6.5,1.5-10.5-8.2L94.4,48.3L94.4,48.3z"/>
	</g>
</g>
<g opacity="0.66">
	<g>
		<path fill="#662D91" d="M53.4,111.4c0,0,2.6,19.5,20.4,21.9c0,0,17.7-0.6,20.4-17.4l0.2-36.2c0,0,1.6-10.5,10.6-10.4
			c0,0,9.7,1.1,10.9,8.6l-0.3,42.7c0,0-2,35-42,34.7C37.1,155.1,32.1,120,32.1,120V78c0,0,1.8-9.2,11.1-9.2c0,0,6.5-1.5,10.4,8.3
			L53.4,111.4z"/>
	</g>
</g>
<g>
	<path fill="#662D91" d="M131.2,14.5c-1.4,0-2.5,0.5-3.3,1.5s-1.2,2.4-1.2,4.1c0,1.8,0.4,3.2,1.2,4.2c0.8,0.9,1.9,1.4,3.4,1.4
		c0.6,0,1.2-0.1,1.8-0.2c0.6-0.1,1.2-0.3,1.9-0.5v2.1c-1.2,0.4-2.5,0.7-4,0.7c-2.2,0-3.9-0.7-5.1-2s-1.8-3.2-1.8-5.7
		c0-1.6,0.3-2.9,0.9-4.1s1.4-2.1,2.5-2.7c1.1-0.6,2.3-0.9,3.8-0.9s2.9,0.3,4.2,1l-0.9,2c-0.5-0.2-1-0.4-1.6-0.6
		C132.4,14.5,131.8,14.5,131.2,14.5z"/>
	<path fill="#662D91" d="M136.5,41c0,2.4-0.6,4.3-1.8,5.7s-2.9,2-5.2,2s-4-0.7-5.2-2s-1.8-3.3-1.8-5.7s0.6-4.4,1.8-5.7
		c1.2-1.3,3-2,5.2-2s4,0.7,5.2,2S136.5,38.6,136.5,41z M125.1,41c0,1.8,0.4,3.2,1.1,4.2s1.8,1.4,3.3,1.4s2.6-0.5,3.3-1.4
		s1.1-2.3,1.1-4.2c0-1.8-0.4-3.2-1.1-4.2c-0.7-1-1.8-1.4-3.3-1.4s-2.6,0.5-3.3,1.4C125.5,37.8,125.1,39.2,125.1,41z"/>
	<path fill="#662D91" d="M135.4,54.6v9.7c0,1.1-0.2,2.1-0.7,2.9s-1.2,1.5-2.1,1.9c-0.9,0.4-2,0.7-3.2,0.7c-1.9,0-3.3-0.5-4.3-1.5
		s-1.5-2.3-1.5-4.1v-9.7h2.5V64c0,1.2,0.3,2.1,0.9,2.7s1.5,0.9,2.6,0.9c2.3,0,3.5-1.2,3.5-3.6v-9.5L135.4,54.6L135.4,54.6z"/>
	<path fill="#662D91" d="M127.2,84.6v6h-2.5v-15h4.2c1.9,0,3.4,0.4,4.3,1.1s1.4,1.8,1.4,3.3c0,1.9-1,3.2-2.9,4l4.2,6.6h-2.8l-3.6-6
		H127.2z M127.2,82.5h1.7c1.1,0,2-0.2,2.5-0.6s0.8-1.1,0.8-1.9s-0.3-1.5-0.8-1.8s-1.4-0.6-2.5-0.6h-1.6L127.2,82.5L127.2,82.5z"/>
	<path fill="#662D91" d="M134.3,107.5c0,1.3-0.5,2.4-1.4,3.1c-1,0.8-2.3,1.1-4,1.1s-3.1-0.3-4.2-0.8v-2.3c0.7,0.3,1.4,0.6,2.2,0.8
		c0.8,0.2,1.5,0.3,2.1,0.3c1,0,1.7-0.2,2.1-0.6c0.5-0.4,0.7-0.9,0.7-1.5s-0.2-1-0.6-1.4s-1.3-0.9-2.6-1.4c-1.4-0.6-2.3-1.2-2.9-1.9
		c-0.6-0.7-0.8-1.6-0.8-2.6c0-1.3,0.4-2.2,1.3-3c0.9-0.7,2.1-1.1,3.6-1.1c1.4,0,2.9,0.3,4.3,0.9l-0.8,2c-1.3-0.6-2.5-0.8-3.6-0.8
		c-0.8,0-1.4,0.2-1.8,0.5c-0.4,0.3-0.6,0.8-0.6,1.4c0,0.4,0.1,0.7,0.2,1c0.2,0.3,0.4,0.5,0.8,0.8c0.4,0.3,1.1,0.6,2,1
		c1.1,0.5,1.9,0.9,2.4,1.3s0.9,0.8,1.1,1.3S134.3,106.8,134.3,107.5z"/>
	<path fill="#662D91" d="M134.1,132.6h-8.5v-15h8.5v2.1h-6v4.1h5.7v2.1h-5.7v4.7h6V132.6z"/>
	<path fill="#662D91" d="M134.3,149.5c0,1.3-0.5,2.4-1.4,3.1c-1,0.8-2.3,1.1-4,1.1s-3.1-0.3-4.2-0.8v-2.3c0.7,0.3,1.4,0.6,2.2,0.8
		c0.8,0.2,1.5,0.3,2.1,0.3c1,0,1.7-0.2,2.1-0.6c0.5-0.4,0.7-0.9,0.7-1.5s-0.2-1-0.6-1.4s-1.3-0.9-2.6-1.4c-1.4-0.6-2.3-1.2-2.9-1.9
		s-0.8-1.6-0.8-2.6c0-1.3,0.4-2.2,1.3-3c0.9-0.7,2.1-1.1,3.6-1.1c1.4,0,2.9,0.3,4.3,0.9l-0.8,2c-1.3-0.6-2.5-0.8-3.6-0.8
		c-0.8,0-1.4,0.2-1.8,0.5c-0.4,0.3-0.6,0.8-0.6,1.4c0,0.4,0.1,0.7,0.2,1c0.2,0.3,0.4,0.5,0.8,0.8c0.4,0.3,1.1,0.6,2,1
		c1.1,0.5,1.9,0.9,2.4,1.3c0.5,0.4,0.9,0.8,1.1,1.3S134.3,148.8,134.3,149.5z"/>
</g>
</svg>
