<?xml version="1.0" encoding="utf-8"?>
<!-- Generator: Adobe Illustrator 18.0.0, SVG Export Plug-In . SVG Version: 6.00 Build 0)  -->
<!DOCTYPE svg PUBLIC "-//W3C//DTD SVG 1.1//EN" "http://www.w3.org/Graphics/SVG/1.1/DTD/svg11.dtd">
<svg version="1.1" id="Layer_1" xmlns="http://www.w3.org/2000/svg" xmlns:xlink="http://www.w3.org/1999/xlink" x="0px" y="0px"
	 viewBox="0 0 50 50" enable-background="new 0 0 50 50" xml:space="preserve">
<rect opacity="0.4" fill="#662D91" enable-background="new    " width="50" height="50"/>
<g opacity="0.66">
	<g>
		<path fill="#662D91" d="M29.5,15.1c0,0-0.9-6.1-6.4-6.8c0,0-5.5,0.2-6.3,5.5v11.3c0,0-0.5,3.3-3.3,3.3c0,0-3.1-0.3-3.4-2.7V12.4
			c0,0,0.6-10.9,13.1-10.9c11.4,0,13,10.9,13,10.9l0.1,13.1c0,0-0.6,2.9-3.4,2.9c0,0-2,0.5-3.3-2.6L29.5,15.1L29.5,15.1z"/>
	</g>
</g>
<g opacity="0.66">
	<g>
		<path fill="#662D91" d="M16.7,34.8c0,0,0.8,6.1,6.4,6.8c0,0,5.5-0.2,6.4-5.4l0.1-11.3c0,0,0.5-3.3,3.3-3.3c0,0,3,0.3,3.4,2.7
			l-0.1,13.3c0,0-0.6,10.9-13.1,10.8c-11.4-0.1-13-11-13-11V24.4c0,0,0.6-2.9,3.5-2.9c0,0,2-0.5,3.3,2.6L16.7,34.8z"/>
	</g>
</g>
<g>
	<path fill="#FFFFFF" d="M41,4.5c-0.4,0-0.8,0.2-1,0.5c-0.3,0.3-0.4,0.8-0.4,1.3c0,0.6,0.1,1,0.4,1.3C40.2,7.9,40.6,8,41,8
		c0.2,0,0.4,0,0.6-0.1c0.2,0,0.4-0.1,0.6-0.2v0.7c-0.4,0.1-0.8,0.2-1.2,0.2c-0.7,0-1.2-0.2-1.6-0.6s-0.6-1-0.6-1.8
		c0-0.5,0.1-0.9,0.3-1.3c0.2-0.4,0.4-0.7,0.8-0.8C40.2,4,40.6,3.9,41,3.9s0.9,0.1,1.3,0.3l-0.3,0.6c-0.2-0.1-0.3-0.1-0.5-0.2
		C41.4,4.5,41.2,4.5,41,4.5z"/>
	<path fill="#FFFFFF" d="M42.7,12.8c0,0.8-0.2,1.3-0.6,1.8c-0.4,0.4-0.9,0.6-1.6,0.6s-1.2-0.2-1.6-0.6s-0.6-1-0.6-1.8
		s0.2-1.4,0.6-1.8s0.9-0.6,1.6-0.6s1.2,0.2,1.6,0.6S42.7,12.1,42.7,12.8z M39.1,12.8c0,0.6,0.1,1,0.3,1.3s0.6,0.4,1,0.4
		s0.8-0.2,1-0.4c0.2-0.3,0.3-0.7,0.3-1.3c0-0.6-0.1-1-0.3-1.3c-0.2-0.3-0.6-0.4-1-0.4s-0.8,0.2-1,0.4C39.2,11.8,39.1,12.2,39.1,12.8
		z"/>
	<path fill="#FFFFFF" d="M42.3,17.1v3c0,0.3-0.1,0.7-0.2,0.9c-0.2,0.2-0.4,0.5-0.7,0.6c-0.3,0.1-0.6,0.2-1,0.2c-0.6,0-1-0.2-1.3-0.5
		s-0.5-0.7-0.5-1.3v-3h0.8v3c0,0.4,0.1,0.7,0.3,0.8c0.2,0.2,0.5,0.3,0.8,0.3c0.7,0,1.1-0.4,1.1-1.1v-3L42.3,17.1L42.3,17.1z"/>
	<path fill="#FFFFFF" d="M39.8,26.4v1.9H39v-4.7h1.3c0.6,0,1.1,0.1,1.3,0.3c0.3,0.2,0.4,0.6,0.4,1c0,0.6-0.3,1-0.9,1.2l1.3,2.1h-0.9
		l-1.1-1.9H39.8z M39.8,25.8h0.5c0.3,0,0.6-0.1,0.8-0.2s0.2-0.3,0.2-0.6s-0.1-0.5-0.2-0.6c-0.2-0.1-0.4-0.2-0.8-0.2h-0.5L39.8,25.8
		L39.8,25.8z"/>
	<path fill="#FFFFFF" d="M42,33.6c0,0.4-0.2,0.8-0.4,1c-0.3,0.2-0.7,0.3-1.2,0.3c-0.5,0-1-0.1-1.3-0.2v-0.7c0.2,0.1,0.4,0.2,0.7,0.3
		c0.2,0.1,0.5,0.1,0.7,0.1c0.3,0,0.5-0.1,0.7-0.2c0.2-0.1,0.2-0.3,0.2-0.5s-0.1-0.3-0.2-0.4s-0.4-0.3-0.8-0.4
		c-0.4-0.2-0.7-0.4-0.9-0.6S39,31.7,39,31.3c0-0.4,0.1-0.7,0.4-0.9c0.3-0.2,0.7-0.3,1.1-0.3c0.4,0,0.9,0.1,1.3,0.3L41.7,31
		c-0.4-0.2-0.8-0.3-1.1-0.3c-0.2,0-0.4,0.1-0.6,0.2c-0.1,0.1-0.2,0.3-0.2,0.4c0,0.1,0,0.2,0.1,0.3c0.1,0.1,0.1,0.2,0.2,0.2
		s0.3,0.2,0.6,0.3c0.3,0.2,0.6,0.3,0.7,0.4s0.3,0.2,0.3,0.4S42,33.4,42,33.6z"/>
	<path fill="#FFFFFF" d="M41.9,41.4h-2.7v-4.7h2.7v0.7H40v1.3h1.8v0.7H40v1.5h1.9V41.4z"/>
	<path fill="#FFFFFF" d="M42,46.7c0,0.4-0.2,0.8-0.4,1c-0.3,0.3-0.7,0.3-1.2,0.3c-0.5,0-1-0.1-1.3-0.2v-0.7c0.2,0.1,0.4,0.2,0.7,0.3
		c0.2,0.1,0.5,0.1,0.7,0.1c0.3,0,0.5-0.1,0.7-0.2c0.2-0.1,0.2-0.3,0.2-0.5c0-0.2-0.1-0.3-0.2-0.4s-0.4-0.3-0.8-0.4
		c-0.4-0.2-0.7-0.4-0.9-0.6S39,44.8,39,44.5c0-0.4,0.1-0.7,0.4-0.9c0.3-0.2,0.7-0.3,1.1-0.3c0.4,0,0.9,0.1,1.3,0.3l-0.2,0.6
		c-0.4-0.2-0.8-0.2-1.1-0.2c-0.2,0-0.4,0.1-0.6,0.2c-0.1,0.1-0.2,0.2-0.2,0.4c0,0.1,0,0.2,0.1,0.3c0.1,0.1,0.1,0.2,0.2,0.2
		s0.3,0.2,0.6,0.3c0.3,0.2,0.6,0.3,0.7,0.4s0.3,0.2,0.3,0.4S42,46.5,42,46.7z"/>
</g>
</svg>
