<?xml version="1.0" encoding="utf-8"?>
<!-- Generator: Adobe Illustrator 17.1.0, SVG Export Plug-In . SVG Version: 6.00 Build 0)  -->
<!DOCTYPE svg PUBLIC "-//W3C//DTD SVG 1.1//EN" "http://www.w3.org/Graphics/SVG/1.1/DTD/svg11.dtd">
<svg version="1.1" id="Layer_1" xmlns="http://www.w3.org/2000/svg" xmlns:xlink="http://www.w3.org/1999/xlink" x="0px" y="0px"
	 viewBox="0 0 300 55" enable-background="new 0 0 300 55" xml:space="preserve">
<g opacity="0.66">
	<g>
		<path fill="#F7931E" d="M175,23.8c0,0,6.7-1,7.5-7c0,0-0.3-6.1-6-6.9H164c0,0-3.6-0.5-3.6-3.6c0,0,0.3-3.4,2.9-3.8H178
			c0,0,12,0.6,12,14.4c0,12.5-12,14.3-12,14.3l-14.4,0.1c0,0-3.2-0.6-3.2-3.8c0,0-0.5-2.2,2.8-3.6L175,23.8L175,23.8z"/>
	</g>
</g>
<g opacity="0.66">
	<g>
		<path fill="#F7931E" d="M174.9,45.2c0,0,6.7-0.9,7.5-7c0,0-0.2-6.1-6-7L164,31.1c0,0-3.6-0.5-3.6-3.6c0,0,0.4-3.3,3-3.7l14.7,0.1
			c0,0,12,0.7,11.9,14.4c-0.1,12.5-12.1,14.3-12.1,14.3h-14.4c0,0-3.2-0.6-3.2-3.8c0,0-0.5-2.2,2.9-3.6L174.9,45.2z"/>
	</g>
</g>
<g opacity="0.66">
	<g>
		<path fill="#662D91" d="M135.5,16.3c0,0-1-6.7-7-7.5c0,0-6.1,0.3-6.9,6v12.5c0,0-0.5,3.6-3.6,3.6c0,0-3.4-0.3-3.8-2.9V13.3
			c0,0,0.6-12,14.4-12c12.5,0,14.3,12,14.3,12l0.1,14.4c0,0-0.6,3.2-3.8,3.2c0,0-2.2,0.5-3.6-2.8L135.5,16.3L135.5,16.3z"/>
	</g>
</g>
<g opacity="0.66">
	<g>
		<path fill="#662D91" d="M121.4,38c0,0,0.9,6.7,7,7.5c0,0,6.1-0.2,7-6l0.1-12.4c0,0,0.5-3.6,3.6-3.6c0,0,3.3,0.4,3.7,3l-0.1,14.7
			c0,0-0.7,12-14.4,11.9C115.8,53,114.1,41,114.1,41V26.5c0,0,0.6-3.2,3.8-3.2c0,0,2.2-0.5,3.6,2.9L121.4,38z"/>
	</g>
</g>
<g opacity="0.66">
	<g>
		<path fill="#97DCEA" d="M89.9,16.3c0,0-1-6.7-7-7.5c0,0-6.1,0.3-6.9,6v12.5c0,0-0.5,3.6-3.6,3.6c0,0-3.4-0.3-3.8-2.9V13.3
			c0,0,0.6-12,14.4-12c12.5,0,14.3,12,14.3,12l0.1,14.4c0,0-0.6,3.2-3.8,3.2c0,0-2.2,0.5-3.6-2.8L89.9,16.3L89.9,16.3z"/>
	</g>
</g>
<g opacity="0.66">
	<g>
		<path fill="#97DCEA" d="M75.8,38c0,0,0.9,6.7,7,7.5c0,0,6.1-0.2,7-6l0.1-12.4c0,0,0.5-3.6,3.6-3.6c0,0,3.3,0.4,3.7,3l-0.1,14.7
			c0,0-0.7,12-14.4,11.9C70.2,53,68.5,41,68.5,41V26.5c0,0,0.6-3.2,3.8-3.2c0,0,2.2-0.5,3.6,2.9L75.8,38z"/>
	</g>
</g>
<g opacity="0.66">
	<g>
		<path fill="#F8DA25" d="M268.3,9.5c0,0-6.7,1-7.5,7c0,0,0.3,6.1,6,6.9h12.5c0,0,3.6,0.5,3.6,3.6c0,0-0.3,3.4-2.9,3.8h-14.7
			c0,0-12-0.6-12-14.4c0-12.5,12-14.3,12-14.3L279.7,2c0,0,3.2,0.6,3.2,3.8c0,0,0.5,2.2-2.8,3.6L268.3,9.5L268.3,9.5z"/>
	</g>
</g>
<g opacity="0.66">
	<g>
		<path fill="#F8DA25" d="M268.2,30.9c0,0-6.7,0.9-7.5,7c0,0,0.2,6.1,6,7l12.4,0.1c0,0,3.6,0.6,3.6,3.6c0,0-0.4,3.3-3,3.7l-14.7-0.1
			c0,0-12-0.7-11.9-14.4c0.1-12.5,12.1-14.3,12.1-14.3h14.4c0,0,3.2,0.6,3.2,3.8c0,0,0.5,2.2-2.9,3.6L268.2,30.9z"/>
	</g>
</g>
<g opacity="0.66">
	<g>
		<path fill="#9ECF4E" d="M221.1,9.5c0,0-6.7,1-7.5,7c0,0,0.3,6.1,6,6.9h12.5c0,0,3.6,0.5,3.6,3.6c0,0-0.3,3.4-2.9,3.8H218
			c0,0-12-0.6-12-14.4c0-12.5,12-14.3,12-14.3L232.5,2c0,0,3.2,0.6,3.2,3.8c0,0,0.5,2.2-2.8,3.6L221.1,9.5L221.1,9.5z"/>
	</g>
</g>
<g opacity="0.66">
	<g>
		<path fill="#9ECF4E" d="M221,30.9c0,0-6.7,0.9-7.5,7c0,0,0.2,6.1,6,7l12.4,0.1c0,0,3.6,0.6,3.6,3.6c0,0-0.4,3.3-3,3.7l-14.7-0.1
			c0,0-12-0.7-11.9-14.4c0.1-12.5,12.1-14.3,12.1-14.3h14.4c0,0,3.2,0.6,3.2,3.8c0,0,0.5,2.2-2.9,3.6L221,30.9z"/>
	</g>
</g>
<g>
	<g>
		<g>
			<path fill="#B660A3" d="M28.5,17.6c0,0,1,6.7,7,7.5c0,0,6.1-0.3,6.9-6V6.6c0,0,0.5-3.6,3.6-3.6c0,0,3.4,0.3,3.8,2.9v14.7
				c0,0-0.6,12-14.4,12c-12.5,0-14.3-12-14.3-12L21.1,6.2c0,0,0.6-3.2,3.8-3.2c0,0,2.2-0.5,3.6,2.8L28.5,17.6L28.5,17.6z"/>
		</g>
	</g>
</g>
<path fill="#B660A3" d="M28.3,38.4c0,0-1.1,6.7,7.2,8.3c0,0,6.4-0.2,7.4-7.8c0,0,0.1-3.4,3.4-3.5c0,0,3.1-0.5,3.6,2.6
	c0,0,0.4,16-13.9,15.7c0,0-14.3,0.6-14.9-15.2c0,0-0.3-2.7,3.4-3.1C24.5,35.3,27.9,35,28.3,38.4z"/>
</svg>
