<?xml version="1.0" encoding="utf-8"?>
<!-- Generator: Adobe Illustrator 18.0.0, SVG Export Plug-In . SVG Version: 6.00 Build 0)  -->
<!DOCTYPE svg PUBLIC "-//W3C//DTD SVG 1.1//EN" "http://www.w3.org/Graphics/SVG/1.1/DTD/svg11.dtd">
<svg version="1.1" id="Layer_1" xmlns="http://www.w3.org/2000/svg" xmlns:xlink="http://www.w3.org/1999/xlink" x="0px" y="0px"
	 viewBox="0 0 50 50" enable-background="new 0 0 50 50" xml:space="preserve">
<rect opacity="0.5" fill="#B660A3" enable-background="new    " width="50" height="50"/>
<g>
	<g>
		<g>
			<path fill="#B660A3" d="M16.3,15.6c0,0,0.9,6.1,6.4,6.8c0,0,5.5-0.2,6.3-5.4V5.6c0,0,0.5-3.3,3.3-3.3c0,0,3.1,0.3,3.4,2.7v13.3
				c0,0-0.6,10.9-13,10.9c-11.3,0-13-10.9-13-10.9L9.6,5.2c0,0,0.6-2.9,3.4-2.9c0,0,2-0.5,3.3,2.6L16.3,15.6L16.3,15.6z"/>
		</g>
	</g>
</g>
<path fill="#B660A3" d="M16.1,34.4c0,0-1,6.1,6.5,7.5c0,0,5.8-0.2,6.7-7.1c0,0,0.1-3.1,3.1-3.2c0,0,2.8-0.5,3.3,2.3
	c0,0,0.3,14.5-12.5,14.2c0,0-13,0.6-13.5-13.8c0,0-0.3-2.5,3.1-2.8C12.6,31.6,15.8,31.3,16.1,34.4z"/>
<g>
	<path fill="#FFFFFF" d="M44.5,15.2h-1v-2.8h-2.9v2.8h-1V8.9h1v2.6h2.9V8.9h1V15.2z"/>
	<path fill="#FFFFFF" d="M44.9,20.8c0,1-0.2,1.8-0.8,2.4c-0.5,0.6-1.2,0.8-2.2,0.8c-1,0-1.7-0.3-2.2-0.8c-0.5-0.6-0.8-1.4-0.8-2.4
		c0-1,0.3-1.8,0.8-2.4c0.5-0.6,1.3-0.8,2.2-0.8c0.9,0,1.7,0.3,2.2,0.8C44.7,19.1,44.9,19.8,44.9,20.8z M40.1,20.8
		c0,0.8,0.2,1.4,0.5,1.8c0.3,0.4,0.8,0.6,1.4,0.6s1.1-0.2,1.4-0.6s0.5-1,0.5-1.8s-0.2-1.4-0.5-1.8c-0.3-0.4-0.8-0.6-1.4-0.6
		c-0.6,0-1.1,0.2-1.4,0.6C40.3,19.5,40.1,20.1,40.1,20.8z"/>
	<path fill="#FFFFFF" d="M41.4,32.9l-1.8-5.3h0c0.1,0.8,0.1,1.5,0.1,2.2v3.1h-0.9v-6.4h1.5l1.8,5h0l1.8-5h1.5v6.3h-1v-3.1
		c0-0.3,0-0.7,0-1.2c0-0.5,0-0.8,0-0.9h0l-1.9,5.3H41.4L41.4,32.9z"/>
	<path fill="#FFFFFF" d="M43.9,41.7h-3.6v-6.3h3.6v0.9h-2.6V38h2.4v0.9h-2.4v2h2.6V41.7z"/>
</g>
</svg>
