<?xml version="1.0" encoding="utf-8"?>
<!-- Generator: Adobe Illustrator 17.1.0, SVG Export Plug-In . SVG Version: 6.00 Build 0)  -->
<!DOCTYPE svg PUBLIC "-//W3C//DTD SVG 1.1//EN" "http://www.w3.org/Graphics/SVG/1.1/DTD/svg11.dtd">
<svg version="1.1" id="Layer_1" xmlns="http://www.w3.org/2000/svg" xmlns:xlink="http://www.w3.org/1999/xlink" x="0px" y="0px"
	 viewBox="0 0 960 560" enable-background="new 0 0 960 560" xml:space="preserve">
<path fill="#A35695" d="M554.7,98.5l0,99.8c0,41.1-33.8,74.3-74.8,74.3c-41.1,0-74.8-33.3-74.8-74.3v-95.8c0-14-10.9-25.4-24.9-25.4
	c-14,0-25.1,11.3-25.1,25.4v95.8c0,69.1,56.1,125.1,125.2,125.1c69.1,0,125.2-56,125.2-125.2l0.1-99.8c0-14-11.4-25.4-25.4-25.4
	C566.1,73.1,554.7,84.4,554.7,98.5z"/>
<path fill="#A35695" d="M554.7,387.5l0,9.1c0,41.1-33.8,74.3-74.8,74.3c-41.1,0-74.8-33.3-74.8-74.3v-5.2c0-14-10.9-25.4-24.9-25.4
	c-14,0-25.1,11.3-25.1,25.4v5.2c0,69.1,56.1,125.1,125.2,125.1c69.1,0,125.2-56,125.2-125.2l0.1-9.1c0-14-11.4-25.4-25.4-25.4
	C566.1,362.1,554.7,373.4,554.7,387.5z"/>
</svg>
