<?xml version="1.0" encoding="utf-8"?>
<!-- Generator: Adobe Illustrator 18.0.0, SVG Export Plug-In . SVG Version: 6.00 Build 0)  -->
<!DOCTYPE svg PUBLIC "-//W3C//DTD SVG 1.1//EN" "http://www.w3.org/Graphics/SVG/1.1/DTD/svg11.dtd">
<svg version="1.1" id="Layer_1" xmlns="http://www.w3.org/2000/svg" xmlns:xlink="http://www.w3.org/1999/xlink" x="0px" y="0px"
	 viewBox="0 0 160 160" enable-background="new 0 0 160 160" xml:space="preserve">
<g>
	<g>
		<g>
			<path fill="#B660A3" d="M48.3,48.8c0,0,2.8,19.5,20.5,21.8c0,0,17.7-0.8,20.2-17.5V16.8c0,0,1.5-10.5,10.5-10.5c0,0,9.8,1,11,8.5
				v42.8c0,0-1.8,35-41.8,35c-36.5,0-41.7-35-41.7-35l-0.3-42c0,0,1.8-9.2,11-9.2c0,0,6.5-1.5,10.5,8.2V48.8z"/>
		</g>
	</g>
</g>
<path fill="#B660A3" d="M47.8,109.3c0,0-3.2,19.5,21,24.2c0,0,18.5-0.5,21.5-22.7c0,0,0.2-9.8,9.8-10.2c0,0,9-1.5,10.5,7.5
	c0,0,1.1,46.5-40.3,45.7c0,0-41.7,1.8-43.4-44.2c0,0-1-7.9,9.8-9.1C36.6,100.4,46.6,99.5,47.8,109.3z"/>
<g>
	<path fill="#B660A3" d="M138.9,47.6h-3.3v-9.1h-9.4v9.1h-3.3V27.3h3.3v8.3h9.4v-8.3h3.3V47.6z"/>
	<path fill="#B660A3" d="M140.4,65.8c0,3.3-0.8,5.9-2.5,7.7c-1.7,1.8-4,2.7-7,2.7c-3.1,0-5.4-0.9-7.1-2.7c-1.6-1.8-2.5-4.4-2.5-7.7
		s0.8-5.9,2.5-7.7c1.7-1.8,4-2.7,7.1-2.7c3,0,5.3,0.9,7,2.7C139.6,60,140.4,62.5,140.4,65.8z M124.9,65.8c0,2.5,0.5,4.4,1.5,5.7
		c1,1.3,2.5,1.9,4.5,1.9c2,0,3.5-0.6,4.5-1.9c1-1.3,1.5-3.2,1.5-5.7c0-2.5-0.5-4.4-1.5-5.7s-2.5-1.9-4.4-1.9c-2,0-3.5,0.6-4.5,1.9
		S124.9,63.3,124.9,65.8z"/>
	<path fill="#B660A3" d="M129.2,104.4l-5.9-16.9h-0.1c0.2,2.5,0.2,4.9,0.2,7.1v9.9h-3V84.1h4.7l5.6,16.1h0.1l5.8-16.1h4.7v20.3h-3.2
		v-10c0-1,0-2.3,0.1-3.9c0.1-1.6,0.1-2.6,0.1-2.9h-0.1l-6.1,16.9H129.2z"/>
	<path fill="#B660A3" d="M137.1,132.8h-11.5v-20.3h11.5v2.8h-8.2v5.5h7.6v2.8h-7.6v6.4h8.2V132.8z"/>
</g>
</svg>
