<?xml version="1.0" encoding="utf-8"?>
<!-- Generator: Adobe Illustrator 17.1.0, SVG Export Plug-In . SVG Version: 6.00 Build 0)  -->
<!DOCTYPE svg PUBLIC "-//W3C//DTD SVG 1.1//EN" "http://www.w3.org/Graphics/SVG/1.1/DTD/svg11.dtd">
<svg version="1.1" id="Layer_1" xmlns="http://www.w3.org/2000/svg" xmlns:xlink="http://www.w3.org/1999/xlink" x="0px" y="0px"
	 viewBox="0 0 960 560" enable-background="new 0 0 960 560" xml:space="preserve">
<g>
	<path fill="#B660A3" d="M686.1,166.6h-11.5v-31.8h-32.9v31.8h-11.5v-71h11.5v29h32.9v-29h11.5V166.6z"/>
	<path fill="#B660A3" d="M691.4,230.3c0,11.6-2.8,20.6-8.8,26.9c-5.9,6.3-14,9.4-24.5,9.4c-10.8,0-18.9-3.1-24.8-9.4
		c-5.6-6.3-8.8-15.4-8.8-26.9c0-11.5,2.8-20.7,8.8-27c6-6.3,14-9.4,24.8-9.4c10.5,0,18.6,3.2,24.5,9.4
		C688.6,210,691.4,218.8,691.4,230.3z M637.2,230.3c0,8.8,1.8,15.4,5.2,19.9c3.5,4.6,8.7,6.6,15.7,6.6s12.2-2.1,15.8-6.6
		s5.2-11.2,5.2-19.9s-1.8-15.4-5.2-20c-3.5-4.5-8.8-6.7-15.4-6.7c-7,0-12.2,2.1-15.8,6.7C639.2,214.9,637.2,221.6,637.2,230.3z"/>
	<path fill="#B660A3" d="M652.2,365.4l-20.7-59.1h-0.3c0.7,8.8,0.7,17.1,0.7,24.9v34.6h-10.5v-71.4h16.5l19.6,56.3h0.3l20.3-56.3
		h16.4v71h-11.2v-35c0-3.5,0-8,0.4-13.6c0.3-5.6,0.3-9.1,0.3-10.1h-0.3l-21.4,59.1h-10.2V365.4z"/>
	<path fill="#B660A3" d="M679.9,464.8h-40.2v-71.1h40.2v9.8h-28.7v19.2h26.6v9.8h-26.6V455h28.7V464.8z"/>
</g>
<path opacity="0.96" fill="#A35695" d="M530,369.3l-0.1,11.2c0,50.2-40.8,90.8-91,90.8c-50.2,0-91-40.6-91-90.8v-6.3
	c0-17.1-13.8-31-30.9-31c-17.1,0-31.1,13.8-31.1,31v6.3c0,84.5,68.6,152.9,153,152.9c84.5,0,153-68.5,153-152.9l0.1-11.2
	c0-17.1-13.9-31-31-31C543.9,338.3,530,352.2,530,369.3z"/>
<path fill="#A35695" d="M530,65L530,186.4c0,50-41,90.5-91,90.5c-50,0-91-40.5-91-90.4V69.8c0-17.1-13.4-30.9-30.4-30.9
	c-17.1,0-30.6,13.8-30.6,30.9v116.6c0,84.1,68.3,152.3,152.4,152.3c84.1,0,152.4-68.2,152.4-152.3L591.8,65
	c0-17.1-13.8-30.9-30.9-30.9C543.9,34.1,530,47.9,530,65z"/>
</svg>
