<?xml version="1.0" encoding="utf-8"?>
<!-- Generator: Adobe Illustrator 18.0.0, SVG Export Plug-In . SVG Version: 6.00 Build 0)  -->
<!DOCTYPE svg PUBLIC "-//W3C//DTD SVG 1.1//EN" "http://www.w3.org/Graphics/SVG/1.1/DTD/svg11.dtd">
<svg version="1.1" id="Layer_1" xmlns="http://www.w3.org/2000/svg" xmlns:xlink="http://www.w3.org/1999/xlink" x="0px" y="0px"
	 viewBox="0 0 160 160" enable-background="new 0 0 160 160" xml:space="preserve">
<rect opacity="0.5" fill="#B660A3" width="160" height="160"/>
<g>
	<g>
		<g>
			<path fill="#B660A3" d="M52.1,49.8c0,0,2.8,19.4,20.4,21.7c0,0,17.6-0.8,20.1-17.4V17.9c0,0,1.5-10.5,10.5-10.5c0,0,9.8,1,11,8.5
				v42.6c0,0-1.8,34.9-41.6,34.9c-36.3,0-41.5-34.9-41.5-34.9l-0.3-41.8c0,0,1.8-9.2,11-9.2c0,0,6.5-1.5,10.5,8.2L52.1,49.8
				L52.1,49.8z"/>
		</g>
	</g>
</g>
<path fill="#B660A3" d="M51.6,110c0,0-3.2,19.4,20.9,24.1c0,0,18.4-0.5,21.4-22.6c0,0,0.2-9.8,9.8-10.2c0,0,9-1.5,10.5,7.5
	c0,0,1.1,46.3-40.1,45.5c0,0-41.5,1.8-43.2-44c0,0-1-7.9,9.8-9.1C40.4,101.2,50.4,100.3,51.6,110z"/>
<g>
	<path fill="#B660A3" d="M142.3,48.6H139v-9.1h-9.4v9.1h-3.3V28.4h3.3v8.3h9.4v-8.3h3.3V48.6z"/>
	<path fill="#B660A3" d="M143.8,66.7c0,3.3-0.8,5.9-2.5,7.7c-1.7,1.8-4,2.7-7,2.7c-3.1,0-5.4-0.9-7.1-2.7c-1.6-1.8-2.5-4.4-2.5-7.7
		s0.8-5.9,2.5-7.7s4-2.7,7.1-2.7c3,0,5.3,0.9,7,2.7C143,61,143.8,63.4,143.8,66.7z M128.3,66.7c0,2.5,0.5,4.4,1.5,5.7
		c1,1.3,2.5,1.9,4.5,1.9c2,0,3.5-0.6,4.5-1.9s1.5-3.2,1.5-5.7s-0.5-4.4-1.5-5.7c-1-1.3-2.5-1.9-4.4-1.9c-2,0-3.5,0.6-4.5,1.9
		C128.9,62.3,128.3,64.2,128.3,66.7z"/>
	<path fill="#B660A3" d="M132.6,105.2l-5.9-16.8h-0.1c0.2,2.5,0.2,4.9,0.2,7.1v9.9h-3V85h4.7l5.6,16h0.1l5.8-16h4.7v20.2h-3.2v-10
		c0-1,0-2.3,0.1-3.9s0.1-2.6,0.1-2.9h-0.1l-6.1,16.8L132.6,105.2L132.6,105.2z"/>
	<path fill="#B660A3" d="M140.5,133.4H129v-20.2h11.5v2.8h-8.2v5.5h7.6v2.8h-7.6v6.4h8.2V133.4z"/>
</g>
</svg>
